<?xml version="1.0" encoding="utf-8"?>
<!-- Generator: Adobe Illustrator 27.5.0, SVG Export Plug-In . SVG Version: 6.00 Build 0)  -->
<svg version="1.1" xmlns="http://www.w3.org/2000/svg" xmlns:xlink="http://www.w3.org/1999/xlink" x="0px" y="0px"
	 viewBox="0 0 500 500" style="enable-background:new 0 0 500 500;" xml:space="preserve">
<g id="BACKGROUND">
	<rect style="fill:#FFFFFF;" width="500" height="500"/>
</g>
<g id="OBJECTS">
	<g>
		<g>
			<g>
				<path style="fill:#4D080C;" d="M261.13,292.423c-4.707,0.081-9.603,0.396-14.148,1.621c-2.824,0.761-5.677,2.164-7.659,4.314
					c-1.587,1.722-2.462,4.081-2.382,6.421c0.08,2.34,1.114,4.634,2.815,6.244c-1.013-2.622,0.268-5.429,2.459-7.19
					c2.191-1.761,5.399-2.06,7.964-0.908c2.244,1.008,4.031,3.174,4.216,5.627c0.16,2.129-0.945,4.305-2.758,5.432
					c-1.813,1.126-4.254,1.153-6.092,0.066c1.525,2.747,3.246,5.134,6.093,6.462c2.848,1.328,6.2,1.623,9.493,1.403"/>
			</g>
			<g>
				<path style="fill:#4D080C;" d="M261.128,292.423c4.707,0.081,9.603,0.396,14.148,1.621c2.824,0.761,5.677,2.164,7.659,4.314
					c1.587,1.722,2.462,4.081,2.382,6.421c-0.08,2.34-1.114,4.634-2.815,6.244c1.013-2.622-0.268-5.429-2.46-7.19
					s-5.399-2.06-7.964-0.908c-2.244,1.008-4.031,3.174-4.216,5.627c-0.16,2.129,0.945,4.305,2.758,5.432
					c1.813,1.126,4.254,1.153,6.092,0.066c-1.525,2.747-3.246,5.134-6.093,6.462c-2.848,1.328-6.2,1.623-9.493,1.403"/>
			</g>
			<g>
				<path style="fill:#4D080C;" d="M222.187,252.665c-2.172,3.863-6.006,6.753-10.318,7.776c-4.065,0.965-8.648,0.194-11.79-2.559
					c-2.289-2.005-3.656-4.851-4.733-7.697c-1.078-2.846-1.942-5.802-3.493-8.42c-1.551-2.618-4.038-5.25-7.02-5.857
					c3.157,0.139,6.105-0.018,9.262,0.121c2.93,0.129,5.903,0.266,8.686,1.19c3.364,1.117,6.244,3.313,9.054,5.473
					c2.286,1.758,4.592,3.537,6.432,5.758C219.507,249.952,220.592,251.545,222.187,252.665z"/>
			</g>
			<g>
				<path style="fill:#FFFFFF;" d="M220.127,251.38c-2.808,1.913-6.141,3.159-9.539,3.12c-3.398-0.038-6.841-1.458-8.973-4.104
					c-1.497-1.858-2.288-4.204-2.627-6.566c-0.339-2.362-0.254-4.762-0.168-7.146c3.444,0.065,6.647,1.699,9.467,3.677
					c2.82,1.978,5.289,4.409,7.96,6.584C217.856,248.255,219.426,249.428,220.127,251.38z"/>
			</g>
			<g>
				<path style="fill:#4D080C;" d="M261.129,481.964c-0.466,0-0.883-0.327-0.98-0.802c-0.905-4.479-3.728-8.992-8.63-13.799
					c-2.284-2.24-4.823-4.313-7.278-6.316c-1.851-1.512-3.765-3.073-5.576-4.71c-4.208-3.805-7.166-7.647-8.982-11.681
					c-1.331,3.853-1.445,7.102-0.398,10.298l1.088,3.323l-2.681-2.245c-14.003-11.729-24.091-28.129-27.948-45.314
					c-1.183,2.071-2.151,4.479-2.225,7.292l-0.073,2.795l-1.716-2.207c-8.669-11.15-12.889-25.605-11.715-39.938
					c-4.105,2.118-8.408,3.051-12.161,3.679l-1.739,0.291l0.643-1.642c1.794-4.58,1.627-9.651,1.109-13.304
					c-2.965-0.649-6.428,0.137-9.608,2.202c-2.819,1.83-5.349,4.134-8.204,7.47l-0.934,1.09l-0.699-1.253
					c-3.034-5.435-4.085-12.435-2.926-19.081c-3.361,1.79-6.255,4.472-8.274,7.7c-2.24,3.582-3.2,7.621-2.935,12.35l0.184,3.277
					l-1.98-2.618c-8.027-10.617-11.04-25.381-7.941-38.234c-3.334,1.972-6.158,4.815-8.082,8.178
					c-2.353,4.11-3.359,8.67-2.91,13.186l0.691,6.957l-2.613-6.484c-5.202-12.904-6.868-27.092-4.77-40.269
					c-2.602,2.227-4.916,4.505-6.048,7.699l-1.222,3.448l-0.702-3.591c-5.476-28.015,1.263-58.649,17.609-80.811
					c-3.014,1.163-5.307,2.648-6.975,5.188l-1.648,2.51l-0.186-2.997c-0.623-10.078,3.796-19.616,8.201-27.618
					c4.017-7.296,8.13-14.766,10.628-22.532c-2.27,1.986-5.033,3.729-8.46,5.355l-4.147,1.967l2.953-3.514
					c5.021-5.974,6.143-13.963,6.2-19.614c0.053-5.245-0.702-10.573-1.432-15.725c-0.269-1.895-0.537-3.789-0.769-5.686
					c-1.343-10.997-2.67-25.15-1.153-37.833c-0.146-0.139-0.284-0.339-0.38-0.623c-1.356-3.991,4.223-33.984,17.093-47.655
					l1.803-1.915l-0.075,2.629c-0.207,7.228,5.487,13.248,10.471,17.685c7.845,6.986,16.558,13.226,24.984,19.26
					c2.822,2.021,5.644,4.042,8.44,6.094c4.624,3.392,9.463,7.084,13.344,11.619c4.366,5.103,6.948,10.703,7.466,16.195
					c0.618,6.55-1.864,12.879-6.477,16.517c-0.432,0.342-1.062,0.27-1.404-0.166c-0.342-0.434-0.268-1.063,0.166-1.404
					c4.086-3.223,6.279-8.878,5.724-14.76c-0.606-6.418-4.138-11.744-6.995-15.083c-3.742-4.374-8.477-7.983-13.007-11.307
					c-2.79-2.047-5.606-4.063-8.422-6.08c-8.469-6.065-17.226-12.336-25.15-19.392c-4.739-4.219-10.079-9.818-11.006-16.702
					c-10.407,12.749-14.777,35.467-15.13,42.09l1.153-1.522l-0.483,3.735c-1.693,12.723-0.342,27.192,1.023,38.376
					c0.23,1.883,0.497,3.765,0.764,5.647c0.74,5.226,1.506,10.63,1.452,16.026c-0.05,4.957-0.888,11.63-4.253,17.431
					c2.91-1.72,5.135-3.58,6.979-5.8l2.782-3.35l-1.042,4.228c-2.311,9.38-7.164,18.195-11.859,26.721
					c-3.893,7.071-7.775,15.301-8.028,23.902c2.701-2.677,6.188-3.902,9.353-4.843l3.051-0.908l-1.983,2.489
					c-16.824,21.112-24.267,51.037-19.75,78.781c1.701-2.731,4.153-4.779,6.713-6.917l2.853-2.392l-0.563,2.798
					c-2.395,11.889-1.55,24.79,2.352,36.854c0.422-3.071,1.452-6.079,3.061-8.891c2.5-4.367,6.394-7.934,10.964-10.041l2.021-0.932
					l-0.645,2.13c-3.564,11.765-1.498,25.599,5.22,36.108c0.232-3.804,1.3-7.191,3.235-10.284c2.584-4.132,6.481-7.444,10.974-9.328
					l1.831-0.768l-0.473,1.928c-1.53,6.236-0.905,12.985,1.652,18.358c2.601-2.9,5.002-5.007,7.66-6.733
					c3.891-2.524,8.216-3.358,11.869-2.289l0.606,0.178l0.1,0.624c0.563,3.525,0.874,8.546-0.559,13.35
					c3.682-0.697,7.757-1.793,11.492-4.076l1.751-1.07l-0.236,2.039c-1.575,13.587,1.921,27.432,9.621,38.383
					c0.622-3.108,2.118-5.667,3.579-7.824l1.36-2.009l0.45,2.384c3.152,16.669,12.38,32.769,25.49,44.613
					c-0.415-3.356,0.262-6.863,2.08-10.991l1.045-2.374l0.819,2.462c1.528,4.593,4.593,8.925,9.371,13.244
					c1.773,1.603,3.667,3.149,5.499,4.645c2.49,2.032,5.065,4.134,7.414,6.438c5.197,5.096,8.204,9.947,9.191,14.83
					c0.109,0.541-0.241,1.069-0.782,1.179C261.261,481.958,261.195,481.964,261.129,481.964z"/>
			</g>
			<g>
				<path style="fill:#4D080C;" d="M187.015,165.209c1.444-4.063,1.527-8.413,0.632-12.484c-0.868-4.088-2.65-7.932-5.004-11.332
					c-2.396-3.402-5.273-6.461-8.436-9.238c-3.143-2.803-6.505-5.4-9.919-7.99c-3.38-2.635-6.809-5.285-10.014-8.251
					c-3.169-2.997-6.187-6.239-8.507-10.038c-2.317-3.774-3.938-7.901-4.898-12.169c-0.452-2.139-0.748-4.316-0.745-6.499
					c-0.005-2.178,0.294-4.37,1.029-6.396c-0.817,4.24-0.101,8.521,1.141,12.52c1.248,4.012,3.102,7.841,5.438,11.27
					c2.379,3.385,5.287,6.443,8.452,9.209c3.147,2.799,6.523,5.383,9.933,7.979c3.38,2.637,6.808,5.293,10,8.274
					c3.163,2.996,6.165,6.274,8.476,10.051c2.351,3.757,3.935,7.997,4.499,12.369C189.633,156.837,189.078,161.406,187.015,165.209z
					"/>
			</g>
			<g>
				<path style="fill:#4D080C;" d="M157.423,172.591c-1.764,2.949-4.536,5.281-7.743,6.516c-3.206,1.234-6.429,1.004-9.715,0
					c6.342-2.104,10.746-8.205,11.158-14.874c-5.88,0.689-12.477-2.425-15.668-7.411c3.418,0.447,6.434-1.727,7.723-4.924
					c-4.186-2.472-7.45-6.467-9.038-11.062c-1.587-4.595-1.605-10.015,0.163-14.544c1.624,2.659,3.912,4.378,6.613,5.93
					c-2.897-8.406-3.47-17.504-1.997-26.272c0.61,6.263,3.794,12.027,7.765,16.908c3.972,4.881,8.746,9.034,13.2,13.479
					c4.454,4.445,8.669,9.303,11.161,15.081c2.492,5.778,3.074,12.64,0.311,18.293c-2.043,4.18-0.63,9.445,1.618,13.518
					c-3.659-1.007-6.583-2.587-8.854-5.627c-6.544,7.183-10.056,16.961-9.971,26.678
					C149.65,193.988,151.594,182.193,157.423,172.591z"/>
				<path style="fill:#4D080C;" d="M155.193,209.161l-1.959-4.481c-3.499-8-3.342-17.526,0.254-26.465
					c-1.07,0.74-2.227,1.354-3.448,1.825c-3.108,1.197-6.499,1.205-10.366,0.023l-3-0.917l2.978-0.988
					c5.517-1.831,9.567-6.907,10.362-12.839c-5.909,0.192-12.234-3.012-15.4-7.958l-1.158-1.81l2.13,0.279
					c2.549,0.331,5.001-1.072,6.314-3.549c-4-2.605-7.147-6.612-8.704-11.118c-1.696-4.911-1.63-10.606,0.176-15.235l0.734-1.879
					l1.051,1.722c1.087,1.78,2.518,3.099,3.988,4.147c-2.17-7.632-2.592-15.917-1.212-24.134l1.25-7.441l0.731,7.509
					c0.522,5.353,3.061,10.862,7.546,16.374c2.798,3.438,6.076,6.584,9.247,9.626c1.303,1.251,2.607,2.502,3.884,3.776
					c4.109,4.102,8.674,9.138,11.373,15.393c2.872,6.659,2.978,13.631,0.291,19.128c-2.27,4.645,0.359,10.356,1.595,12.596
					l1.146,2.077l-2.287-0.629c-3.8-1.045-6.509-2.621-8.622-5.041c-5.774,6.784-9.02,15.869-8.938,25.119L155.193,209.161z
					 M158.203,173.232c-4.976,8.263-6.634,17.544-4.752,25.739c1.007-8.253,4.496-16.078,9.93-22.042l0.815-0.895l0.725,0.97
					c1.536,2.056,3.471,3.502,6.115,4.537c-1.344-3.124-2.673-7.986-0.579-12.269c2.43-4.973,2.31-11.336-0.331-17.459
					c-2.564-5.945-6.974-10.802-10.949-14.769c-1.268-1.266-2.562-2.507-3.856-3.749c-3.214-3.085-6.538-6.273-9.414-9.807
					c-3.121-3.836-5.352-7.692-6.671-11.521c-0.417,6.88,0.47,13.674,2.624,19.928l0.869,2.521l-2.313-1.329
					c-1.923-1.104-4.044-2.498-5.781-4.609c-1.026,3.817-0.88,8.183,0.449,12.029c1.503,4.351,4.638,8.188,8.6,10.527l0.741,0.438
					l-0.321,0.798c-1.239,3.072-3.781,5.116-6.674,5.53c3.253,3.777,8.675,6.011,13.576,5.438l1.188-0.139l-0.074,1.194
					c-0.379,6.147-3.88,11.649-9.003,14.51c2.253,0.324,4.27,0.113,6.203-0.631c2.971-1.143,5.513-3.264,7.172-5.978
					c0.025-0.041,0.05-0.082,0.075-0.124l1.713,1.032C158.255,173.147,158.229,173.19,158.203,173.232z"/>
			</g>
			<g>
				<path style="fill:#4D080C;" d="M165.713,218.714c2.139,3.172,4.209,6.385,6.743,9.087c2.483,2.728,5.468,4.876,8.797,5.78
					c3.35,0.895,7.008,0.778,10.823,0.639c3.791-0.092,7.954-0.094,11.992,1.399c3.958,1.563,7.144,4.199,9.944,6.886
					c2.765,2.74,5.294,5.496,8.083,7.812c2.795,2.253,6.001,4.094,9.534,4.472c3.451,0.39,7.378-0.79,9.677-3.903
					c-0.739,1.78-2.199,3.273-3.935,4.266c-1.74,1.005-3.757,1.533-5.818,1.6c-2.053,0.036-4.092-0.391-6.001-1.09
					c-1.914-0.701-3.675-1.717-5.326-2.844c-3.318-2.255-6.007-5.093-8.8-7.544c-2.737-2.486-5.603-4.737-8.789-5.921
					c-3.129-1.244-6.756-1.33-10.534-1.355c-1.894-0.034-3.841-0.048-5.829-0.217c-1.986-0.157-4.024-0.52-5.979-1.24
					c-1.956-0.713-3.786-1.767-5.334-3.086c-1.555-1.316-2.882-2.826-4.025-4.425C168.684,225.796,167.072,222.29,165.713,218.714z"
					/>
			</g>
			<g>
				<path style="fill:#4D080C;" d="M208.484,261.838c-3.414,0-6.692-1.124-9.065-3.204c-2.578-2.258-4.031-5.512-5.009-8.095
					c-0.26-0.685-0.507-1.376-0.754-2.068c-0.788-2.204-1.533-4.286-2.665-6.196c-0.829-1.399-3.109-4.725-6.359-5.386
					c-0.542-0.11-0.891-0.638-0.781-1.179c0.11-0.541,0.636-0.89,1.179-0.781c4.035,0.821,6.716,4.698,7.681,6.327
					c1.23,2.076,2.043,4.347,2.828,6.542c0.243,0.68,0.486,1.359,0.741,2.033c0.951,2.512,2.225,5.343,4.457,7.299
					c2.729,2.39,6.904,3.285,10.901,2.339c4.029-0.957,7.647-3.684,9.677-7.294c0.27-0.481,0.878-0.653,1.362-0.381
					c0.481,0.271,0.652,0.88,0.381,1.362c-2.299,4.089-6.396,7.176-10.959,8.259C210.9,261.699,209.684,261.838,208.484,261.838z"/>
			</g>
			<g>
				<path style="fill:#4D080C;" d="M259.225,322.982c-3.096,0-5.783-0.523-8.011-1.563c-3.23-1.507-5.055-4.198-6.545-6.883
					c-0.219-0.395-0.146-0.888,0.177-1.202c0.323-0.314,0.816-0.375,1.207-0.144c1.521,0.899,3.553,0.878,5.055-0.056
					c1.502-0.933,2.422-2.744,2.29-4.507c-0.148-1.957-1.606-3.882-3.628-4.79c-2.288-1.028-5.071-0.716-6.927,0.775
					c-1.581,1.271-3.094,3.617-2.153,6.05c0.168,0.436,0.013,0.931-0.376,1.19c-0.388,0.262-0.906,0.216-1.244-0.103
					c-1.899-1.796-3.039-4.324-3.127-6.936c-0.089-2.611,0.875-5.211,2.646-7.133c2.443-2.651,5.772-3.966,8.134-4.603
					c4.943-1.332,10.288-1.584,14.391-1.655l0.035,2c-3.989,0.068-9.175,0.311-13.906,1.587c-2.979,0.803-5.53,2.232-7.184,4.026
					c-1.418,1.538-2.19,3.619-2.118,5.709c0.034,0.988,0.255,1.962,0.64,2.866c0.393-1.675,1.426-3.285,3.008-4.557
					c2.426-1.952,6.042-2.37,8.999-1.041c2.713,1.219,4.599,3.756,4.803,6.464c0.187,2.487-1.11,5.041-3.229,6.356
					c-1.289,0.802-2.856,1.129-4.371,0.971c1.082,1.553,2.416,2.938,4.268,3.802c2.378,1.108,5.406,1.55,9.004,1.312l0.133,1.996
					C260.523,322.959,259.865,322.982,259.225,322.982z"/>
			</g>
			<g>
				<path style="fill:#4D080C;" d="M261.131,406.621c-0.012,0-0.023,0-0.034-0.001c-18.457-0.618-24.565-3.201-29.946-8.065
					c-4.974-4.495-8.566-10.928-10.677-19.119c-1.589-6.168-2.175-12.592-2.742-18.804l-0.254-2.755
					c-1.082-11.427-3.27-27.828-9.734-38.289c-0.291-0.47-0.145-1.086,0.325-1.376c0.471-0.291,1.086-0.145,1.376,0.325
					c6.685,10.816,8.923,27.524,10.024,39.15l0.255,2.763c0.56,6.133,1.138,12.475,2.687,18.486
					c2.012,7.805,5.404,13.906,10.081,18.134c5.021,4.539,10.834,6.954,28.671,7.552c0.553,0.018,0.984,0.48,0.966,1.032
					C262.112,406.196,261.667,406.621,261.131,406.621z"/>
			</g>
			<g>
				<path style="fill:#4D080C;" d="M200.37,294.999c-1.058-2.401-1.121-5.003-0.66-7.3c0.444-2.324,1.404-4.434,2.569-6.347
					c2.355-3.836,5.8-6.886,9.748-8.804c3.948-1.942,8.445-2.607,12.695-2.012c4.255,0.585,8.296,2.364,11.492,5.1
					c-3.404-2.473-7.488-3.869-11.589-4.105c-4.107-0.242-8.206,0.729-11.657,2.782c-3.456,2.031-6.307,5.031-8.075,8.514
					c-0.881,1.743-1.53,3.584-1.724,5.42c-0.218,1.83,0.037,3.607,0.805,5.012L200.37,294.999z"/>
			</g>
			<g>
				<path style="fill:#4D080C;" d="M214.837,271.102c2.289-2.562,4.992-4.751,8.011-6.371c3.012-1.618,6.368-2.648,9.782-2.791
					c3.421-0.143,6.835,0.678,9.792,2.295c2.952,1.609,5.46,4.09,6.824,7.134c-1.526-2.967-4.124-5.254-7.067-6.663
					c-2.949-1.415-6.27-2.015-9.477-1.708c-3.223,0.308-6.321,1.447-9.068,3.116c-2.752,1.672-5.176,3.861-7.18,6.36
					c-0.367,0.457-1.034,0.531-1.491,0.164c-0.457-0.367-0.531-1.034-0.164-1.491C214.812,271.132,214.826,271.115,214.837,271.102z
					"/>
			</g>
			<g>
				<path style="fill:#4D080C;" d="M236.053,360.151c-0.311,0-0.63-0.056-0.942-0.171c-0.656-0.24-1.16-0.68-1.58-1.072
					c-3.282-3.068-5.874-7.237-7.494-12.057c-1.381-4.103-3.151-12.58-2.564-17.748l1.987,0.227
					c-0.528,4.653,1.096,12.796,2.472,16.884c1.516,4.506,3.924,8.391,6.964,11.233c0.289,0.271,0.597,0.544,0.904,0.656
					c0.201,0.073,0.386,0.048,0.438,0.003c0.086-0.075,0.164-0.336,0.053-1.158c-1.199-8.854,0.494-18.923,4.53-26.935l1.786,0.9
					c-3.803,7.551-5.464,17.424-4.334,25.767c0.091,0.668,0.279,2.06-0.717,2.931C237.15,359.966,236.617,360.151,236.053,360.151z"
					/>
			</g>
			<g>
				<path style="fill:#4D080C;" d="M232.686,389.963c-1.488,0-3.001-0.342-4.386-1.043c-3.09-1.564-5.385-4.742-6.139-8.5
					c-0.64-3.19-0.206-6.755,1.256-10.307c1.103-2.681,2.582-4.874,4.397-6.52c1.348-1.222,2.757-1.55,3.868-0.9
					c1.229,0.717,1.368,2.254,1.435,2.993c0.246,2.723,0.675,5.779,2.673,7.595c0.528,0.48,1.163,0.869,1.836,1.279
					c0.86,0.525,1.749,1.067,2.495,1.857c1.584,1.676,2.236,4.309,1.703,6.87l0,0c-0.34,1.634-1.696,3.082-3.11,4.403
					C237.117,389.185,234.931,389.963,232.686,389.963z M230.469,364.372c-0.324,0-0.823,0.261-1.312,0.704
					c-1.592,1.443-2.901,3.395-3.89,5.799c-1.311,3.185-1.707,6.35-1.145,9.152c0.634,3.161,2.533,5.818,5.081,7.108
					c2.698,1.369,6.123,0.986,8.145-0.905c0.676-0.632,2.26-2.112,2.518-3.351l0,0c0.402-1.931-0.057-3.88-1.198-5.087
					c-0.563-0.596-1.302-1.047-2.084-1.524c-0.723-0.441-1.471-0.898-2.14-1.507c-2.409-2.189-3.019-5.569-3.319-8.895
					c-0.034-0.374-0.112-1.248-0.451-1.446C230.618,364.388,230.549,364.372,230.469,364.372z"/>
			</g>
			<g>
				<path style="fill:#4D080C;" d="M210.744,255.502c-0.056,0-0.111-0.001-0.167-0.001c-3.876-0.044-7.517-1.718-9.74-4.477
					c-1.474-1.829-2.429-4.202-2.838-7.052c-0.353-2.459-0.264-4.932-0.178-7.324c0.02-0.552,0.499-0.989,1.036-0.963
					c0.552,0.02,0.983,0.483,0.963,1.036c-0.083,2.304-0.169,4.686,0.158,6.968c0.357,2.49,1.17,4.536,2.416,6.081
					c1.853,2.299,4.92,3.694,8.205,3.731c3.769,0.03,6.957-1.579,8.965-2.947c0.458-0.31,1.079-0.193,1.39,0.264
					c0.311,0.456,0.193,1.079-0.264,1.39C217.524,254.365,214.088,255.502,210.744,255.502z"/>
			</g>
			<g>
				<path style="fill:#4D080C;" d="M228.211,263.3c-0.2-0.892-0.095-1.778,0.14-2.62c0.247-0.839,0.652-1.629,1.18-2.326
					c0.526-0.698,1.178-1.302,1.919-1.767c0.746-0.455,1.572-0.794,2.486-0.841c-0.487,0.769-0.976,1.39-1.439,2.014l-1.372,1.801
					l-1.365,1.807C229.282,261.983,228.817,262.623,228.211,263.3z"/>
			</g>
			<g>
				<path style="fill:#4D080C;" d="M168.905,233.981c-1.338-0.783-2.87-1.163-4.401-1.216c-1.535-0.057-3.063,0.17-4.56,0.498
					c-3.008,0.664-5.87,1.792-8.706,3.017c-2.84,1.191-5.748,2.421-8.897,2.859c-3.095,0.453-6.516,0.144-9.273-1.696l0.826-0.664
					c1.416,3.459,3.827,6.492,6.864,8.636c3.031,2.153,6.683,3.394,10.374,3.51l1.499,0.047l-0.934,1.19
					c-1.103,1.406-2.55,2.498-4.15,3.244c-1.601,0.739-3.376,1.152-5.178,1.073l0.756-1.297c1.474,2.321,3.761,4.117,6.34,5.102
					c2.62,1.003,5.485,1.358,8.359,1.421l2.585,0.056l-2.068,1.563c-3.816,2.884-6.845,6.787-8.898,11.12
					c-2.046,4.336-3.138,9.148-2.934,13.91l-1.823-0.487c0.896-1.427,1.886-2.812,2.986-4.098c1.101-1.291,2.269-2.486,3.501-3.642
					c1.27-1.174,2.699-2.197,4.284-2.962c1.58-0.763,3.332-1.259,5.132-1.316l1.846-0.058l-1.019,1.535
					c-1.315,1.983-2.187,4.282-2.604,6.649c-0.412,2.367-0.371,4.827,0.242,7.121l-1.641-0.246c1.586-2.499,3.824-4.556,6.383-5.989
					c2.559-1.441,5.422-2.287,8.323-2.551l0.965-0.087l-0.029,0.961c-0.039,1.278-0.281,2.536-0.724,3.734
					c-0.446,1.195-1.111,2.337-2.051,3.279l-0.554-1.391c2.239,0.091,4.489-0.102,6.606-0.74c2.116-0.629,4.073-1.739,5.663-3.269
					l2.223-2.138l-1.093,2.872c-1.587,4.17-3.795,8.107-6.579,11.59c-2.777,3.485-6.135,6.505-9.897,8.866l-0.254-0.769
					c8.383-0.362,16.749-3.186,23.44-8.43c-3.225,2.757-6.947,4.945-10.926,6.477c-3.977,1.542-8.195,2.472-12.463,2.789
					l-1.562,0.116l1.309-0.886c3.602-2.438,6.814-5.434,9.457-8.869c2.645-3.435,4.717-7.294,6.182-11.365l1.13,0.734
					c-1.715,1.715-3.873,2.991-6.179,3.72c-2.307,0.741-4.729,0.987-7.107,0.934l-1.836-0.041l1.282-1.35
					c1.432-1.509,2.164-3.754,2.224-5.906l0.935,0.874c-2.673,0.258-5.295,1.055-7.612,2.379c-2.318,1.318-4.314,3.181-5.72,5.426
					l-1.096,1.749l-0.545-1.996c-0.708-2.592-0.761-5.305-0.325-7.913c0.444-2.609,1.381-5.143,2.847-7.386l0.827,1.478
					c-3.008,0.113-5.882,1.689-8.143,3.811c-2.346,2.216-4.446,4.643-6.155,7.357l-1.706,2.71l-0.117-3.196
					c-0.187-5.128,1.011-10.225,3.204-14.803c2.202-4.574,5.427-8.688,9.523-11.748l0.517,1.619
					c-2.993-0.084-6.059-0.468-8.944-1.591c-2.904-1.131-5.47-3.163-7.142-5.827l-0.865-1.379l1.622,0.081
					c2.992,0.15,6.135-1.229,8.053-3.575l0.565,1.237c-3.99-0.198-7.889-1.611-11.081-3.966c-3.2-2.347-5.695-5.614-7.123-9.293
					l-0.661-1.701l1.487,1.037c2.414,1.684,5.561,2.05,8.536,1.717c3.01-0.325,5.902-1.437,8.775-2.546
					c2.867-1.139,5.814-2.202,8.869-2.781c1.525-0.294,3.089-0.452,4.643-0.335C166.066,232.697,167.6,233.145,168.905,233.981z"/>
			</g>
			<g>
				<path style="fill:#4D080C;" d="M258.498,400.304c-10.537,0-20.268-1.414-30.594-11.641c-0.393-0.389-0.395-1.022-0.007-1.415
					c0.387-0.392,1.022-0.395,1.414-0.007c11.496,11.387,22.755,11.19,31.801,11.037c0.538,0.03,1.008,0.431,1.018,0.982
					c0.01,0.553-0.431,1.008-0.982,1.018C260.258,400.294,259.375,400.304,258.498,400.304z"/>
			</g>
			<g>
				<path style="fill:#4D080C;" d="M242.826,354.862c-0.071,0-0.142-0.008-0.212-0.022c-0.304-0.066-0.559-0.27-0.692-0.55
					c-2.358-4.985-3.397-10.529-3.004-16.03l1.995,0.143c-0.335,4.694,0.441,9.421,2.249,13.757
					c2.663-2.869,4.022-7.214,3.35-11.024l1.97-0.348c0.88,5-1.133,10.561-5.011,13.839
					C243.289,354.78,243.06,354.862,242.826,354.862z"/>
			</g>
			<g>
				<path style="fill:#4D080C;" d="M245.63,341.305c-0.152,0-0.308-0.005-0.468-0.016c-2.054-0.137-4.842-1.429-6.484-3.004
					c-0.398-0.383-0.412-1.016-0.029-1.414c0.383-0.399,1.016-0.411,1.414-0.029c1.298,1.246,3.646,2.346,5.233,2.451
					c0.785,0.058,1.351-0.066,1.694-0.353c0.312-0.262,0.514-0.757,0.54-1.325c0.029-0.633-0.133-1.326-0.29-1.997
					c-0.126-0.538,0.208-1.075,0.746-1.201c0.541-0.124,1.076,0.209,1.201,0.746c0.179,0.766,0.382,1.635,0.34,2.544
					c-0.052,1.134-0.509,2.143-1.254,2.767C247.613,341.027,246.725,341.305,245.63,341.305z"/>
			</g>
			<g>
				<path style="fill:#4D080C;" d="M251.283,341.866c-1.317,0-2.646-0.299-3.826-0.869c-0.497-0.241-0.705-0.839-0.465-1.336
					c0.241-0.497,0.841-0.702,1.336-0.465c1.138,0.551,2.457,0.773,3.709,0.627c0.7-0.082,1.224-0.273,1.556-0.567
					c0.382-0.339,0.628-0.931,0.675-1.625c0.048-0.733-0.108-1.531-0.259-2.303c-0.106-0.542,0.248-1.067,0.789-1.174
					c0.537-0.109,1.067,0.248,1.173,0.789c0.167,0.857,0.357,1.826,0.292,2.819c-0.082,1.233-0.56,2.295-1.344,2.99
					c-0.653,0.579-1.52,0.924-2.65,1.057C251.943,341.848,251.613,341.866,251.283,341.866z"/>
			</g>
			<g>
				<path style="fill:#4D080C;" d="M258.271,342.793c-0.419,0-0.85-0.059-1.275-0.178c-1.241-0.35-2.256-1.105-3.152-1.77
					c-0.443-0.329-0.536-0.956-0.207-1.399c0.329-0.442,0.956-0.535,1.399-0.206c0.794,0.59,1.615,1.2,2.501,1.449
					c0.666,0.189,1.557,0.147,2.04-0.368c0.247-0.264,0.412-0.683,0.464-1.181c0.058-0.559,0.088-1.226,0.088-1.929
					c0-0.553,0.447-1,1-1c0.553,0,1,0.447,1,1c0,0.781-0.033,1.5-0.099,2.136c-0.1,0.944-0.443,1.754-0.994,2.342
					C260.368,342.405,259.356,342.793,258.271,342.793z"/>
			</g>
			<g>
				<path style="fill:#4D080C;" d="M251.116,351.476c-0.328,0-0.649-0.161-0.84-0.457c-1.918-2.963-3.056-6.39-3.29-9.91
					c-0.037-0.551,0.38-1.027,0.931-1.065c0.539-0.026,1.027,0.381,1.064,0.932c0.187,2.805,1.008,5.544,2.388,7.988
					c0.395-0.444,0.735-1.028,1.053-1.797c0.917-2.218,1.323-4.656,1.174-7.053c-0.034-0.552,0.385-1.026,0.936-1.061
					c0.56-0.027,1.026,0.384,1.061,0.936c0.169,2.699-0.289,5.445-1.322,7.942c-0.421,1.019-1.153,2.481-2.628,3.395
					C251.478,351.427,251.296,351.476,251.116,351.476z"/>
			</g>
			<g>
				<path style="fill:#4D080C;" d="M257.785,349.439c-0.053,0-0.106-0.004-0.159-0.013c-0.273-0.044-0.516-0.199-0.67-0.429
					c-1.352-2.008-2.216-4.65-2.642-8.081c-0.068-0.548,0.321-1.047,0.869-1.115c0.541-0.074,1.048,0.32,1.116,0.869
					c0.315,2.536,0.877,4.572,1.709,6.181c0.253-0.294,0.489-0.622,0.705-0.982c0.966-1.612,1.417-3.281,1.418-5.251
					c0.001-0.552,0.448-0.999,1-0.999h0.001c0.553,0.001,1,0.448,0.999,1.001c-0.002,2.347-0.543,4.341-1.703,6.276
					c-0.564,0.943-1.247,1.728-2.03,2.334C258.221,349.366,258.005,349.439,257.785,349.439z"/>
			</g>
			<g>
				<path style="fill:#4D080C;" d="M243.42,397.989c-0.127,0-0.257-0.024-0.382-0.076c-0.51-0.212-0.752-0.797-0.541-1.307
					c0.708-1.709,1.136-3.112,1.347-4.417c0.304-1.879,0.11-3.621-0.559-5.092c-2.673,1.293-5.926,4.296-7.191,6.735
					c-0.254,0.489-0.858,0.681-1.348,0.427c-0.49-0.254-0.682-0.858-0.427-1.349c1.638-3.157,5.795-6.836,9.077-8.031
					c0.446-0.164,0.947,0.013,1.196,0.418c1.237,2.026,1.662,4.52,1.228,7.21c-0.236,1.462-0.704,3.008-1.474,4.864
					C244.185,397.756,243.813,397.989,243.42,397.989z"/>
			</g>
			<g>
				<path style="fill:#4D080C;" d="M252.29,399.278c-0.013,0-0.026,0-0.038-0.001c-0.552-0.021-0.982-0.485-0.961-1.037
					c0.087-2.262-0.368-4.798-1.182-6.751c-1.964,1.302-3.489,3.541-3.84,5.746c-0.087,0.546-0.597,0.922-1.145,0.83
					c-0.545-0.087-0.917-0.599-0.831-1.145c0.506-3.18,2.845-6.287,5.82-7.733c0.483-0.233,1.065-0.046,1.318,0.427
					c1.261,2.351,1.973,5.686,1.857,8.702C253.268,398.855,252.825,399.278,252.29,399.278z"/>
			</g>
			<g>
				<path style="fill:#4D080C;" d="M261.129,400.16c-0.503,0-0.937-0.378-0.993-0.89c-0.241-2.176-1.176-4.324-2.66-6.148
					c-1.339,1.648-2.185,3.667-2.412,5.788c-0.059,0.549-0.551,0.947-1.1,0.888c-0.549-0.059-0.947-0.551-0.888-1.101
					c0.312-2.926,1.624-5.689,3.695-7.78c0.189-0.192,0.461-0.331,0.718-0.297c0.27,0.002,0.527,0.113,0.714,0.308
					c2.202,2.295,3.593,5.18,3.92,8.121c0.061,0.549-0.335,1.043-0.884,1.104C261.203,400.159,261.165,400.16,261.129,400.16z"/>
			</g>
			<g>
				<path style="fill:#4D080C;" d="M219.238,373.538c-0.74-4.337-2.042-8.614-3.951-12.596c-1.933-3.98-4.426-7.712-7.154-11.251
					c-1.365-1.772-2.798-3.496-4.261-5.197c-1.464-1.7-2.969-3.39-4.301-5.224c-1.329-1.828-2.488-3.819-3.168-5.986
					c-0.697-2.149-0.911-4.488-0.381-6.681c-0.447,2.212-0.146,4.511,0.618,6.601c0.749,2.107,1.955,4.012,3.331,5.765
					c1.379,1.757,2.929,3.375,4.461,5.025c1.531,1.652,3.037,3.333,4.482,5.072c2.889,3.474,5.562,7.162,7.713,11.201
					c2.13,4.054,3.637,8.413,4.577,12.905c0.113,0.541-0.234,1.071-0.774,1.184c-0.541,0.113-1.071-0.234-1.184-0.774
					c-0.002-0.011-0.004-0.022-0.006-0.033L219.238,373.538z"/>
			</g>
			<g>
				<path style="fill:#4D080C;" d="M139.089,297.442c-1.744,2.62-3.97,4.937-6.539,6.807c-2.564,1.873-5.46,3.331-8.541,4.22
					l0.106-0.971c2.479,1.221,5.28,1.737,8.035,1.672c2.755-0.059,5.51-0.705,7.906-1.982l3.692-1.968l-2.719,3.208
					c-1.379,1.627-2.319,3.592-2.663,5.676c-0.35,2.085-0.122,4.254,0.541,6.285l-1.759-0.043c0.598-1.647,1.556-3.177,2.833-4.406
					c1.269-1.233,2.85-2.162,4.566-2.649l2.352-0.667l-1.25,2.104c-2.32,3.905-3.507,8.435-3.636,12.985
					c-0.132,4.561,0.838,9.139,2.665,13.331l-1.644-0.099c2.694-4.38,6.407-8.093,10.716-10.825
					c4.297-2.751,9.186-4.56,14.223-5.197l0.834-0.105l-0.243,0.783c-1.075,3.466-3.516,6.422-6.608,8.173l-0.084-0.5
					c2.833,0.668,5.786,0.932,8.713,0.605c-2.896,0.551-5.909,0.474-8.825-0.072l-0.673-0.126l0.589-0.374
					c2.888-1.832,4.994-4.775,5.861-8.004l0.59,0.677c-4.845,0.815-9.476,2.719-13.521,5.445c-4.032,2.743-7.517,6.303-9.981,10.479
					l-0.897,1.521l-0.747-1.62c-2.03-4.404-3.04-9.277-2.941-14.141c0.086-4.863,1.413-9.737,3.934-13.934l1.102,1.437
					c-2.828,0.766-5.138,3.05-6.184,5.826l-0.96,2.547l-0.799-2.59c-0.706-2.287-0.932-4.761-0.489-7.152
					c0.428-2.391,1.565-4.645,3.178-6.427l0.972,1.24c-2.695,1.341-5.681,1.944-8.635,1.929c-2.953-0.039-5.916-0.704-8.527-2.112
					l-1.204-0.65l1.311-0.322c2.994-0.734,5.883-1.97,8.485-3.679C134.824,302.068,137.151,299.919,139.089,297.442z"/>
			</g>
			<g>
				<g>
					<path style="fill:#4D080C;" d="M224.708,291.351c-14.518-10.518-31.632-17.506-49.445-20.151
						c-17.814-2.645-36.3-0.942-53.401,4.957c16.99-6.213,35.518-8.284,53.539-5.947c18.021,2.337,35.489,9.077,50.466,19.511
						c0.453,0.316,0.565,0.939,0.249,1.392c-0.316,0.453-0.939,0.565-1.392,0.249C224.72,291.359,224.712,291.353,224.708,291.351z"
						/>
				</g>
				<g>
					<path style="fill:#4D080C;" d="M223.296,298.805c-25.599-6.577-53.301-5.184-78.286,4.054
						c24.746-9.861,52.598-12.023,78.76-5.997c0.538,0.124,0.874,0.661,0.75,1.199c-0.124,0.538-0.661,0.874-1.199,0.75
						C223.314,298.81,223.303,298.807,223.296,298.805z"/>
				</g>
				<g>
					<path style="fill:#4D080C;" d="M223.176,306.471c-36.012-3.643-73.396,6.761-102.506,28.708
						c28.704-22.475,66.097-33.721,102.688-30.7c0.55,0.046,0.96,0.529,0.914,1.079c-0.045,0.551-0.529,0.96-1.079,0.914
						C223.19,306.472,223.18,306.471,223.176,306.471z"/>
				</g>
				<g>
					<path style="fill:#4D080C;" d="M223.479,312.411c-22.601,2.081-44.057,15.518-55.857,35.298
						c11.223-20.112,32.449-34.459,55.644-37.286c0.548-0.067,1.047,0.323,1.114,0.872c0.067,0.548-0.323,1.047-0.872,1.114
						C223.5,312.409,223.487,312.41,223.479,312.411z"/>
				</g>
			</g>
			<g>
				<path style="fill:#4D080C;" d="M264.481,349.439c-0.22,0-0.436-0.072-0.612-0.209c-0.782-0.605-1.465-1.391-2.03-2.334
					c-1.159-1.936-1.7-3.93-1.702-6.276c-0.001-0.553,0.446-1,0.999-1.001h0.001c0.552,0,0.999,0.447,1,0.999
					c0.002,1.97,0.452,3.639,1.418,5.251c0.216,0.359,0.451,0.688,0.705,0.982c0.832-1.608,1.395-3.645,1.71-6.181
					c0.067-0.549,0.578-0.948,1.115-0.869c0.549,0.068,0.938,0.567,0.869,1.115c-0.427,3.432-1.292,6.074-2.643,8.081
					c-0.154,0.229-0.397,0.385-0.67,0.429C264.587,349.435,264.534,349.439,264.481,349.439z"/>
			</g>
			<g>
				<path style="fill:#4D080C;" d="M216.84,363.486c-0.057-4.381-1.176-8.791-3.3-12.724c-1.053-1.98-2.299-3.895-3.366-5.919
					c-1.067-2.014-1.957-4.181-2.184-6.452c0.396,2.249,1.424,4.298,2.618,6.203c1.196,1.915,2.57,3.719,3.798,5.666
					c2.488,3.894,4.028,8.439,4.433,13.127c0.048,0.551-0.36,1.035-0.911,1.083c-0.551,0.048-1.035-0.36-1.083-0.911
					C216.841,363.536,216.84,363.509,216.84,363.486z"/>
			</g>
			<g>
				<path style="fill:#4D080C;" d="M206.218,239.007c-1.183,1.571-1.516,3.745-0.857,5.598c0.659,1.853,2.289,3.329,4.199,3.801
					c1.909,0.472,4.04-0.075,5.486-1.408"/>
			</g>
			<g>
				<path style="fill:#4D080C;" d="M300.072,252.665c2.172,3.863,6.007,6.753,10.318,7.776c4.065,0.965,8.648,0.194,11.791-2.559
					c2.289-2.005,3.655-4.851,4.733-7.697c1.078-2.846,1.942-5.802,3.493-8.42c1.551-2.618,4.038-5.25,7.02-5.857
					c-3.157,0.139-6.105-0.018-9.262,0.121c-2.929,0.129-5.903,0.266-8.686,1.19c-3.364,1.117-6.244,3.313-9.054,5.473
					c-2.286,1.758-4.592,3.537-6.432,5.758C302.751,249.952,301.666,251.545,300.072,252.665z"/>
			</g>
			<g>
				<path style="fill:#FFFFFF;" d="M302.131,251.38c2.808,1.913,6.141,3.159,9.539,3.12c3.398-0.038,6.841-1.458,8.973-4.104
					c1.497-1.858,2.288-4.204,2.627-6.566c0.339-2.362,0.254-4.762,0.168-7.146c-3.444,0.065-6.647,1.699-9.467,3.677
					c-2.82,1.978-5.289,4.409-7.96,6.584C304.402,248.255,302.832,249.428,302.131,251.38z"/>
			</g>
			<g>
				<path style="fill:#4D080C;" d="M261.131,481.964c-0.065,0-0.132-0.006-0.199-0.02c-0.541-0.109-0.891-0.638-0.782-1.179
					c0.987-4.884,3.993-9.734,9.189-14.83c2.349-2.304,4.923-4.405,7.413-6.436c1.832-1.496,3.727-3.043,5.5-4.646
					c4.778-4.319,7.844-8.652,9.37-13.244l0.819-2.462l1.045,2.374c1.817,4.128,2.495,7.636,2.079,10.991
					c13.11-11.844,22.339-27.943,25.49-44.613l0.45-2.384l1.36,2.009c1.461,2.158,2.958,4.718,3.579,7.824
					c7.701-10.951,11.196-24.794,9.621-38.383l-0.236-2.039l1.751,1.07c3.734,2.283,7.81,3.379,11.491,4.076
					c-1.432-4.804-1.121-9.825-0.559-13.349l0.1-0.625l0.606-0.178c3.652-1.072,7.979-0.235,11.869,2.289
					c2.656,1.726,5.059,3.832,7.66,6.733c2.557-5.373,3.182-12.122,1.65-18.358l-0.473-1.928l1.831,0.768
					c4.493,1.884,8.391,5.196,10.975,9.328c1.935,3.094,3.003,6.48,3.235,10.283c6.718-10.509,8.784-24.342,5.22-36.107l-0.646-2.13
					l2.022,0.932c4.57,2.107,8.464,5.674,10.965,10.041c1.609,2.812,2.639,5.819,3.061,8.891
					c3.901-12.064,4.746-24.964,2.352-36.854l-0.563-2.798l2.854,2.393c2.559,2.138,5.012,4.186,6.712,6.916
					c4.518-27.743-2.926-57.668-19.75-78.781l-1.983-2.489l3.051,0.908c3.164,0.941,6.651,2.166,9.353,4.843
					c-0.252-8.602-4.132-16.826-7.999-23.85c-4.725-8.581-9.577-17.395-11.888-26.773l-1.042-4.227l2.782,3.349
					c1.845,2.221,4.069,4.081,6.979,5.801c-3.364-5.8-4.202-12.474-4.253-17.431c-0.055-5.396,0.711-10.8,1.452-16.026
					c0.267-1.882,0.533-3.764,0.764-5.647c1.365-11.185,2.715-25.654,1.022-38.376l-0.5-3.755l2.288,3.019
					c0.417,0.55,0.824,1.078,1.222,1.591c1.201,1.555,2.311,2.991,3.311,4.571c-1.318-18.384-8.737-36.21-20.772-49.795
					c-0.901,6.913-6.261,12.535-11.015,16.768c-7.925,7.056-16.682,13.327-25.149,19.392c-2.816,2.017-5.633,4.034-8.423,6.081
					c-4.528,3.322-9.263,6.931-13.008,11.307c-2.857,3.339-6.389,8.666-6.994,15.083c-0.555,5.881,1.639,11.537,5.725,14.76
					c0.434,0.342,0.508,0.971,0.166,1.404c-0.342,0.435-0.97,0.508-1.404,0.166c-4.614-3.639-7.096-9.968-6.477-16.518
					c0.518-5.492,3.099-11.092,7.465-16.195c3.884-4.538,8.722-8.229,13.344-11.619c2.797-2.052,5.619-4.073,8.441-6.094
					c8.427-6.035,17.14-12.274,24.984-19.26c4.984-4.437,10.678-10.457,10.471-17.685l-0.075-2.629l1.804,1.915
					c14.319,15.21,22.745,36.115,23.116,57.354l0.092,5.235l-2.015-4.833c-1.138-2.73-2.571-4.784-4.218-6.946
					c1.077,12.007-0.163,25.03-1.417,35.301c-0.231,1.896-0.5,3.791-0.769,5.686c-0.729,5.152-1.484,10.48-1.432,15.725
					c0.058,5.65,1.18,13.64,6.2,19.614l2.952,3.513l-4.146-1.966c-3.428-1.626-6.191-3.369-8.461-5.356
					c2.498,7.764,6.607,15.226,10.598,22.476c4.437,8.058,8.856,17.597,8.232,27.674l-0.186,2.997l-1.648-2.51
					c-1.669-2.54-3.962-4.025-6.975-5.188c16.346,22.163,23.085,52.798,17.608,80.811l-0.702,3.591l-1.222-3.448
					c-1.132-3.194-3.446-5.474-6.048-7.699c2.097,13.177,0.431,27.365-4.77,40.269l-2.614,6.485l0.691-6.958
					c0.448-4.517-0.558-9.076-2.911-13.186c-1.924-3.361-4.747-6.206-8.082-8.178c3.1,12.854,0.086,27.617-7.941,38.234
					l-1.981,2.618l0.185-3.277c0.265-4.728-0.695-8.767-2.936-12.35c-2.018-3.229-4.913-5.911-8.274-7.7
					c1.159,6.647,0.107,13.647-2.926,19.081l-0.699,1.253l-0.934-1.09c-2.856-3.337-5.387-5.641-8.205-7.47
					c-3.18-2.065-6.642-2.848-9.608-2.203c-0.518,3.653-0.684,8.725,1.109,13.305l0.644,1.642l-1.739-0.291
					c-3.753-0.628-8.057-1.56-12.161-3.679c1.174,14.332-3.046,28.787-11.715,39.938l-1.716,2.207l-0.073-2.795
					c-0.073-2.813-1.042-5.22-2.225-7.291c-3.858,17.184-13.945,33.584-27.948,45.313l-2.682,2.245l1.089-3.323
					c1.047-3.196,0.934-6.444-0.398-10.298c-1.815,4.033-4.773,7.875-8.981,11.681c-1.811,1.637-3.726,3.2-5.578,4.711
					c-2.454,2.004-4.993,4.076-7.276,6.315c-4.9,4.806-7.723,9.319-8.628,13.799C262.015,481.637,261.597,481.964,261.131,481.964z"
					/>
			</g>
			<g>
				<path style="fill:#4D080C;" d="M381.104,80.811c2.277,8.045-1.749,19.309-6.704,26.043c-4.955,6.734-11.768,11.822-18.39,16.927
					c-6.622,5.105-13.28,10.467-17.743,17.537c-4.464,7.07-6.42,16.251-3.024,23.891c-2.229-2.066-6.328-1.723-8.828,0.004
					c-0.86,0.594-1.656,1.418-2.696,1.518c-1.183,0.113-2.222-0.76-2.997-1.661c-3.955-4.598-4.932-11.282-3.446-17.162
					c1.486-5.88,5.176-11.011,9.577-15.183c4.401-4.172,9.523-7.493,14.572-10.853c14.692-9.778,29.374-20.447,39.017-35.228
					C381.517,84.996,381.374,82.76,381.104,80.811z"/>
			</g>
			<g>
				<path style="fill:#4D080C;" d="M364.836,172.591c1.764,2.949,4.536,5.281,7.742,6.516c3.206,1.234,6.429,1.004,9.715,0
					c-6.342-2.104-10.746-8.205-11.158-14.874c5.88,0.689,12.477-2.425,15.668-7.411c-3.418,0.447-6.434-1.727-7.723-4.924
					c4.186-2.472,7.45-6.467,9.038-11.062c1.587-4.595,1.605-10.015-0.163-14.544c-1.624,2.659-3.912,4.378-6.613,5.93
					c2.897-8.406,3.47-17.504,1.997-26.272c-0.61,6.263-3.794,12.027-7.765,16.908c-3.972,4.881-8.746,9.034-13.201,13.479
					c-4.454,4.445-8.669,9.303-11.161,15.081c-2.492,5.778-3.074,12.64-0.311,18.293c2.043,4.18,0.63,9.445-1.618,13.518
					c3.659-1.007,6.582-2.587,8.854-5.627c6.544,7.183,10.056,16.961,9.971,26.678C372.608,193.988,370.664,182.193,364.836,172.591
					z"/>
				<path style="fill:#4D080C;" d="M367.066,209.161l0.043-4.89c0.081-9.25-3.165-18.335-8.938-25.119
					c-2.112,2.42-4.822,3.995-8.622,5.041l-2.287,0.629l1.146-2.077c1.236-2.24,3.866-7.951,1.596-12.596
					c-2.686-5.498-2.58-12.47,0.292-19.129c2.697-6.255,7.262-11.292,11.372-15.393c1.277-1.275,2.581-2.526,3.886-3.777
					c3.17-3.042,6.448-6.187,9.246-9.625c4.485-5.512,7.024-11.021,7.545-16.374l0.73-7.511l1.251,7.442
					c1.381,8.216,0.958,16.501-1.212,24.133c1.47-1.049,2.901-2.367,3.988-4.147l1.052-1.721l0.733,1.878
					c1.807,4.628,1.873,10.323,0.177,15.235c-1.558,4.507-4.705,8.514-8.704,11.118c1.313,2.478,3.761,3.883,6.313,3.549l2.13-0.279
					l-1.157,1.81c-3.166,4.946-9.497,8.144-15.4,7.958c0.795,5.933,4.845,11.008,10.362,12.839l2.977,0.988l-3,0.917
					c-3.866,1.182-7.258,1.174-10.365-0.023c-1.221-0.47-2.379-1.085-3.448-1.825c3.596,8.939,3.752,18.465,0.254,26.465
					L367.066,209.161z M358.062,176.034l0.815,0.895c5.434,5.964,8.922,13.79,9.931,22.042c1.881-8.196,0.223-17.478-4.755-25.741
					c-0.025-0.042-0.051-0.084-0.076-0.126l1.713-1.033c0.025,0.04,0.05,0.081,0.074,0.122c1.66,2.715,4.203,4.836,7.174,5.979
					c1.932,0.743,3.949,0.955,6.202,0.631c-5.123-2.861-8.624-8.364-9.003-14.51l-0.073-1.194l1.188,0.139
					c4.907,0.575,10.323-1.661,13.575-5.438c-2.893-0.414-5.435-2.458-6.674-5.53l-0.321-0.798l0.74-0.438
					c3.963-2.339,7.098-6.176,8.602-10.527c1.329-3.847,1.475-8.213,0.448-12.029c-1.737,2.111-3.858,3.504-5.781,4.609
					l-2.313,1.329l0.869-2.521c2.155-6.253,3.042-13.048,2.625-19.927c-1.319,3.829-3.55,7.684-6.672,11.521
					c-2.875,3.533-6.198,6.722-9.413,9.806c-1.294,1.242-2.589,2.484-3.857,3.75c-3.975,3.967-8.385,8.824-10.948,14.769
					c-2.641,6.123-2.761,12.486-0.331,17.459c2.094,4.283,0.765,9.145-0.579,12.269c2.645-1.035,4.58-2.481,6.116-4.537
					L358.062,176.034z"/>
			</g>
			<g>
				<path style="fill:#4D080C;" d="M356.545,218.714c-1.359,3.577-2.971,7.082-5.224,10.315c-1.143,1.599-2.47,3.109-4.025,4.425
					c-1.549,1.318-3.378,2.372-5.334,3.086c-1.955,0.72-3.993,1.083-5.979,1.24c-1.988,0.169-3.936,0.184-5.829,0.217
					c-3.778,0.025-7.404,0.11-10.534,1.355c-3.186,1.185-6.052,3.436-8.789,5.921c-2.793,2.451-5.482,5.289-8.8,7.544
					c-1.652,1.127-3.413,2.143-5.326,2.844c-1.908,0.699-3.948,1.126-6,1.09c-2.062-0.067-4.078-0.595-5.818-1.6
					c-1.735-0.993-3.195-2.486-3.935-4.266c2.3,3.113,6.226,4.294,9.677,3.903c3.533-0.378,6.738-2.219,9.534-4.472
					c2.789-2.316,5.318-5.072,8.083-7.812c2.8-2.687,5.986-5.323,9.944-6.886c4.038-1.493,8.201-1.49,11.992-1.399
					c3.815,0.139,7.474,0.255,10.823-0.639c3.329-0.904,6.315-3.052,8.797-5.78C352.336,225.099,354.407,221.886,356.545,218.714z"
					/>
			</g>
			<g>
				<path style="fill:#4D080C;" d="M313.774,261.838c-1.199,0-2.415-0.139-3.614-0.424c-4.564-1.083-8.66-4.17-10.96-8.259
					c-0.27-0.481-0.1-1.091,0.382-1.362c0.482-0.271,1.092-0.1,1.362,0.381c2.03,3.61,5.647,6.337,9.677,7.294
					c3.999,0.948,8.173,0.052,10.9-2.339c2.231-1.955,3.506-4.787,4.457-7.299c0.255-0.672,0.498-1.352,0.741-2.03
					c0.785-2.197,1.598-4.468,2.828-6.545c0.965-1.629,3.645-5.506,7.681-6.327c0.538-0.107,1.069,0.239,1.179,0.781
					c0.11,0.541-0.239,1.069-0.78,1.179c-3.251,0.661-5.529,3.987-6.358,5.386c-1.133,1.912-1.878,3.994-2.666,6.199
					c-0.247,0.691-0.494,1.381-0.753,2.065c-1.04,2.744-2.448,5.851-5.01,8.095C320.466,260.714,317.188,261.838,313.774,261.838z"
					/>
			</g>
			<g>
				<path style="fill:#4D080C;" d="M263.034,322.982c-0.64,0-1.297-0.022-1.972-0.067l0.133-1.996
					c3.593,0.236,6.625-0.202,9.004-1.312c1.853-0.864,3.187-2.249,4.269-3.802c-1.523,0.156-3.083-0.169-4.372-0.971
					c-2.118-1.315-3.416-3.869-3.228-6.356c0.205-2.708,2.09-5.245,4.803-6.464c2.959-1.328,6.573-0.91,9.001,1.041
					c1.582,1.272,2.615,2.883,3.007,4.557c0.386-0.903,0.607-1.878,0.642-2.866c0.071-2.09-0.701-4.171-2.119-5.709
					c-1.653-1.794-4.204-3.224-7.183-4.026c-4.732-1.276-9.917-1.519-13.906-1.587l0.035-2c4.103,0.071,9.448,0.323,14.392,1.655
					c2.361,0.637,5.69,1.952,8.133,4.603c1.772,1.922,2.736,4.521,2.647,7.133c-0.089,2.612-1.229,5.141-3.127,6.936
					c-0.34,0.321-0.856,0.365-1.245,0.103c-0.388-0.26-0.544-0.755-0.375-1.19c0.94-2.433-0.572-4.779-2.153-6.05
					c-1.854-1.49-4.64-1.804-6.927-0.775c-2.022,0.908-3.48,2.833-3.629,4.79c-0.133,1.763,0.787,3.574,2.289,4.507
					c1.504,0.934,3.533,0.955,5.056,0.056c0.389-0.229,0.883-0.171,1.206,0.144c0.323,0.314,0.397,0.808,0.177,1.202
					c-1.489,2.685-3.314,5.376-6.544,6.883C268.817,322.458,266.129,322.981,263.034,322.982z"/>
			</g>
			<g>
				<path style="fill:#4D080C;" d="M261.127,406.621c-0.536,0-0.98-0.426-0.998-0.967c-0.019-0.552,0.413-1.014,0.966-1.032
					c17.837-0.598,23.65-3.013,28.671-7.552c4.678-4.227,8.069-10.328,10.081-18.135c1.55-6.01,2.127-12.35,2.686-18.481
					l0.256-2.767c1.102-11.626,3.339-28.333,10.024-39.15c0.291-0.472,0.909-0.616,1.376-0.325c0.47,0.29,0.615,0.906,0.325,1.376
					c-6.465,10.462-8.652,26.862-9.735,38.289l-0.254,2.759c-0.566,6.211-1.152,12.633-2.741,18.8
					c-2.112,8.191-5.704,14.624-10.677,19.119c-5.382,4.864-11.49,7.447-29.946,8.065
					C261.151,406.621,261.139,406.621,261.127,406.621z"/>
			</g>
			<g>
				<path style="fill:#4D080C;" d="M288.156,280.304c4.581-2.143,9.893-2.846,14.976-1.869c5.107,0.917,9.841,3.831,13.204,7.858
					c3.361,4.037,5.485,9.14,5.862,14.472c0.414,5.357-1.237,10.782-4.127,15.235c-2.878,4.496-6.943,8.164-11.583,10.742
					c-4.636,2.581-9.743,4.148-14.895,4.979c-2.583,0.414-5.171,0.651-7.784,0.715c-2.648,0.072-5.272-0.121-7.824-0.41
					c-5.106-0.603-9.972-1.359-14.856-1.32v-3.998h0.001h0.014c1.104,0,1.999,0.895,1.999,1.999c0,1.104-0.895,1.999-1.999,1.999
					l-0.014,0c-4.884-0.034-9.75,0.719-14.856,1.323c-2.552,0.289-5.176,0.482-7.824,0.41c-2.612-0.067-5.201-0.297-7.784-0.712
					c-5.152-0.831-10.26-2.399-14.896-4.98c-4.641-2.578-8.71-6.243-11.586-10.742c-2.891-4.455-4.54-9.881-4.129-15.239
					c0.377-5.333,2.503-10.436,5.864-14.474c3.364-4.027,8.1-6.94,13.207-7.858c5.084-0.976,10.397-0.273,14.977,1.872
					c-4.741-1.753-9.956-2.016-14.733-0.79c-4.8,1.197-9.017,4.113-11.914,7.999c-2.924,3.858-4.659,8.616-4.782,13.385
					c-0.152,4.761,1.39,9.464,4.113,13.382c2.706,3.935,6.451,7.129,10.664,9.39c4.246,2.262,8.964,3.626,13.787,4.312
					c2.412,0.327,4.863,0.556,7.301,0.595c2.404,0.051,4.829-0.138,7.292-0.433c4.914-0.605,10.063-1.449,15.3-1.437v3.998h-0.001
					c-1.104,0-1.999-0.895-1.999-1.999c0-1.104,0.895-1.999,1.999-1.999c5.237-0.008,10.386,0.832,15.3,1.439
					c2.464,0.294,4.888,0.484,7.292,0.432c2.438-0.043,4.89-0.264,7.302-0.592c4.824-0.686,9.542-2.051,13.789-4.313
					c4.213-2.263,7.962-5.453,10.667-9.391c2.723-3.918,4.264-8.623,4.114-13.385c-0.124-4.771-1.86-9.529-4.784-13.388
					c-2.899-3.887-7.117-6.802-11.918-7.999C298.112,278.286,292.897,278.549,288.156,280.304z"/>
			</g>
			<g>
				<path style="fill:#4D080C;" d="M318.286,293.259c0.768-1.405,1.023-3.182,0.806-5.012c-0.194-1.836-0.843-3.677-1.724-5.42
					c-1.768-3.483-4.619-6.482-8.075-8.514c-3.451-2.053-7.55-3.023-11.657-2.782c-4.101,0.235-8.186,1.631-11.589,4.105
					c3.196-2.735,7.237-4.515,11.492-5.1c4.249-0.595,8.747,0.069,12.695,2.012c3.947,1.918,7.393,4.968,9.748,8.804
					c1.165,1.913,2.125,4.023,2.569,6.347c0.461,2.297,0.398,4.899-0.66,7.3L318.286,293.259z"/>
			</g>
			<g>
				<path style="fill:#4D080C;" d="M305.825,272.454c-2.008-2.5-4.435-4.689-7.191-6.36c-2.751-1.669-5.852-2.806-9.078-3.111
					c-3.21-0.305-6.532,0.298-9.481,1.716c-2.943,1.411-5.54,3.701-7.064,6.669c1.367-3.043,3.876-5.521,6.828-7.128
					c2.957-1.614,6.37-2.432,9.788-2.287c3.412,0.145,6.764,1.177,9.772,2.796c3.015,1.621,5.714,3.81,7.999,6.371
					c0.38,0.425,0.343,1.077-0.082,1.457c-0.425,0.38-1.077,0.343-1.457-0.082C305.848,272.483,305.835,272.467,305.825,272.454z"/>
			</g>
			<g>
				<path style="fill:#4D080C;" d="M286.206,360.151c-0.563,0-1.097-0.185-1.503-0.54c-0.997-0.872-0.808-2.263-0.717-2.932
					c1.13-8.343-0.531-18.216-4.335-25.766l1.787-0.9c4.035,8.012,5.728,18.081,4.53,26.935c-0.112,0.822-0.034,1.083,0.051,1.157
					c0.051,0.046,0.238,0.07,0.437-0.002c0.308-0.112,0.616-0.386,0.905-0.656c3.039-2.842,5.447-6.727,6.965-11.233
					c1.375-4.089,3-12.232,2.472-16.884l1.986-0.227c0.588,5.166-1.182,13.645-2.563,17.749c-1.623,4.819-4.214,8.988-7.495,12.056
					c-0.42,0.393-0.923,0.832-1.58,1.072C286.835,360.095,286.516,360.151,286.206,360.151z"/>
			</g>
			<g>
				<path style="fill:#4D080C;" d="M289.573,389.963c-2.245,0-4.431-0.778-6.028-2.272c-1.415-1.322-2.77-2.771-3.11-4.404
					c-0.534-2.561,0.118-5.193,1.703-6.869c0.747-0.789,1.636-1.332,2.495-1.857c0.673-0.411,1.308-0.799,1.836-1.279
					c1.997-1.815,2.427-4.872,2.673-7.595c0.066-0.739,0.205-2.276,1.436-2.994c1.109-0.646,2.52-0.32,3.867,0.901
					c1.814,1.646,3.294,3.839,4.396,6.52c1.462,3.553,1.896,7.117,1.256,10.307c-0.753,3.758-3.048,6.936-6.139,8.5
					C292.573,389.621,291.06,389.963,289.573,389.963z M291.789,364.371c-0.079,0-0.148,0.017-0.204,0.049
					c-0.34,0.198-0.419,1.072-0.452,1.446c-0.301,3.325-0.91,6.705-3.319,8.896c-0.669,0.607-1.417,1.065-2.14,1.506
					c-0.782,0.477-1.521,0.929-2.084,1.524c-1.142,1.207-1.6,3.156-1.198,5.087c0,0,0.001,0,0.001,0.001
					c0.257,1.237,1.841,2.718,2.517,3.35c2.023,1.893,5.45,2.272,8.145,0.905c2.549-1.289,4.447-3.946,5.081-7.108
					c0.563-2.802,0.166-5.967-1.145-9.152c-0.989-2.404-2.298-4.355-3.891-5.799C292.612,364.633,292.114,364.371,291.789,364.371z"
					/>
			</g>
			<g>
				<path style="fill:#4D080C;" d="M311.515,255.502c-3.346,0-6.78-1.137-9.947-3.295c-0.456-0.311-0.574-0.933-0.263-1.389
					c0.311-0.457,0.933-0.574,1.39-0.263c2.007,1.367,5.211,2.968,8.964,2.946c3.286-0.037,6.353-1.432,8.206-3.731
					c1.244-1.544,2.057-3.591,2.415-6.081c0.328-2.281,0.242-4.664,0.159-6.967c-0.021-0.552,0.411-1.016,0.963-1.036
					c0.556-0.017,1.015,0.411,1.035,0.963c0.087,2.392,0.176,4.865-0.177,7.324c-0.411,2.851-1.365,5.224-2.839,7.052
					c-2.223,2.759-5.863,4.433-9.739,4.477C311.626,255.501,311.57,255.502,311.515,255.502z"/>
			</g>
			<g>
				<path style="fill:#4D080C;" d="M294.047,263.3c-0.606-0.677-1.071-1.317-1.548-1.931l-1.366-1.807l-1.372-1.801
					c-0.463-0.624-0.952-1.245-1.439-2.014c0.914,0.047,1.74,0.386,2.486,0.841c0.741,0.464,1.392,1.069,1.919,1.767
					c0.527,0.697,0.933,1.487,1.18,2.326C294.142,261.522,294.247,262.409,294.047,263.3z"/>
			</g>
			<g>
				<path style="fill:#4D080C;" d="M274.53,250.497c0.259,2.24-0.718,4.508-2.086,6.31c-1.397,1.816-3.157,3.266-4.792,4.704
					c-0.814,0.726-1.599,1.46-2.312,2.231c-0.354,0.387-0.687,0.787-0.99,1.201c-0.326,0.431-0.509,0.784-0.719,1.253
					c-0.775,1.854-1.217,4.045-1.519,6.131l-0.781,5.394l-1.184-5.307c-0.499-2.238-0.629-4.446-1.481-6.202
					c-0.396-0.865-1.044-1.69-1.748-2.467c-0.713-0.771-1.499-1.504-2.312-2.231c-1.635-1.439-3.396-2.889-4.793-4.706
					c-1.368-1.803-2.346-4.073-2.085-6.313c0.197,2.225,1.362,4.153,2.833,5.678c1.476,1.554,3.277,2.771,5.04,4.139
					c0.887,0.679,1.77,1.397,2.584,2.222c0.807,0.823,1.595,1.715,2.178,2.835c0.575,1.099,0.863,2.273,1.094,3.381
					c0.227,1.116,0.402,2.188,0.64,3.222l-1.965,0.088c0.378-2.263,0.797-4.45,1.784-6.652c0.253-0.531,0.628-1.138,0.992-1.571
					c0.368-0.462,0.762-0.895,1.171-1.305c0.814-0.825,1.698-1.541,2.584-2.22c1.762-1.367,3.563-2.584,5.038-4.139
					C273.17,254.65,274.336,252.721,274.53,250.497z"/>
			</g>
			<g>
				<path style="fill:#4D080C;" d="M353.353,233.981c1.305-0.836,2.839-1.285,4.39-1.4c1.554-0.117,3.118,0.041,4.643,0.335
					c3.055,0.579,6.003,1.641,8.869,2.781c2.874,1.109,5.765,2.221,8.775,2.546c2.975,0.332,6.122-0.034,8.536-1.717l1.487-1.037
					l-0.661,1.701c-1.429,3.679-3.923,6.946-7.123,9.293c-3.191,2.355-7.091,3.769-11.081,3.966l0.565-1.237
					c1.918,2.346,5.061,3.725,8.053,3.575l1.622-0.081l-0.865,1.379c-1.672,2.664-4.238,4.696-7.142,5.827
					c-2.884,1.122-5.951,1.506-8.943,1.591l0.517-1.619c4.097,3.06,7.321,7.174,9.523,11.748c2.193,4.578,3.392,9.675,3.204,14.803
					l-0.117,3.196l-1.706-2.71c-1.709-2.714-3.809-5.141-6.155-7.357c-2.261-2.123-5.135-3.698-8.143-3.811l0.827-1.478
					c1.466,2.243,2.403,4.777,2.847,7.386c0.436,2.608,0.383,5.321-0.325,7.913l-0.545,1.996l-1.096-1.749
					c-1.406-2.244-3.402-4.108-5.72-5.426c-2.317-1.324-4.939-2.121-7.612-2.379l0.935-0.874c0.06,2.153,0.792,4.397,2.224,5.906
					l1.282,1.35l-1.836,0.041c-2.378,0.053-4.8-0.193-7.107-0.934c-2.306-0.729-4.463-2.005-6.179-3.72l1.13-0.734
					c1.465,4.071,3.537,7.931,6.182,11.365c2.643,3.435,5.855,6.431,9.457,8.869l1.309,0.886l-1.562-0.116
					c-4.268-0.318-8.486-1.247-12.463-2.789c-3.979-1.533-7.702-3.72-10.927-6.477c6.691,5.244,15.056,8.068,23.44,8.43
					l-0.254,0.769c-3.763-2.361-7.12-5.381-9.897-8.866c-2.784-3.482-4.992-7.42-6.579-11.59l-1.093-2.872l2.223,2.138
					c1.59,1.53,3.547,2.64,5.663,3.269c2.117,0.638,4.367,0.831,6.606,0.74l-0.555,1.391c-0.94-0.941-1.605-2.084-2.051-3.279
					c-0.444-1.199-0.685-2.457-0.724-3.734l-0.029-0.961l0.965,0.087c2.902,0.263,5.764,1.109,8.323,2.551
					c2.558,1.434,4.796,3.49,6.383,5.989l-1.641,0.246c0.613-2.295,0.654-4.754,0.242-7.121c-0.416-2.367-1.289-4.667-2.604-6.649
					l-1.019-1.535l1.846,0.058c1.801,0.056,3.553,0.552,5.132,1.316c1.584,0.765,3.014,1.787,4.284,2.962
					c1.232,1.155,2.4,2.35,3.501,3.642c1.1,1.286,2.09,2.671,2.986,4.098l-1.823,0.487c0.204-4.762-0.887-9.574-2.934-13.91
					c-2.053-4.333-5.082-8.236-8.898-11.12l-2.068-1.563l2.585-0.056c2.874-0.063,5.739-0.417,8.359-1.421
					c2.579-0.985,4.866-2.781,6.34-5.102l0.756,1.297c-1.802,0.079-3.577-0.334-5.178-1.073c-1.599-0.745-3.046-1.838-4.15-3.244
					l-0.934-1.19l1.498-0.047c3.692-0.116,7.344-1.358,10.374-3.51c3.037-2.144,5.448-5.177,6.865-8.636l0.826,0.664
					c-2.757,1.84-6.178,2.149-9.273,1.696c-3.148-0.438-6.057-1.667-8.897-2.859c-2.836-1.225-5.697-2.353-8.706-3.017
					c-1.497-0.328-3.025-0.555-4.56-0.498C356.223,232.818,354.691,233.198,353.353,233.981z"/>
			</g>
			<g>
				<path style="fill:#4D080C;" d="M340.684,209.098c0.567-2.675,1.65-5.265,3.276-7.502c1.618-2.235,3.81-4.1,6.378-5.223
					l0.032,0.603c-4.582-1.297-9.589-0.932-13.891,0.972c-2.157,0.956-4.169,2.233-5.869,3.832
					c-1.704,1.594-3.082,3.512-4.062,5.617l-1.051,2.255l-0.451-2.474c-0.521-2.859-0.59-5.802-0.175-8.699
					c0.406-2.894,1.345-5.756,2.927-8.29l1.142,1.523c-2.517,0.712-4.703,2.495-6.349,4.682c-1.672,2.182-2.828,4.766-3.92,7.418
					c-1.12,2.648-2.065,5.419-3.716,8.025c-1.63,2.572-3.97,4.75-6.69,6.15l-1.66,0.854l0.203-1.85
					c0.406-3.698-0.966-7.49-3.068-10.676l1.835-0.551c0.005,3.154-0.905,6.284-2.52,8.966c-1.61,2.689-3.894,4.947-6.563,6.565
					l-3.725,2.258l2.367-3.656c1.846-2.852,3.012-6.137,3.419-9.518c0.412-3.381,0.076-6.852-0.962-10.098l1.85,0.136
					c-1.656,3.388-4.239,6.14-6.927,8.537c-2.699,2.41-5.551,4.545-8.131,6.904c-1.289,1.178-2.512,2.41-3.589,3.743
					c-1.067,1.32-2.048,2.793-2.893,4.279c-1.696,2.983-2.791,6.292-2.771,9.658l0.032,5.558l-1.967-5.201
					c-0.583-1.542-1.096-3.131-1.435-4.786c-0.335-1.652-0.504-3.382-0.292-5.134l1.778,0.741c-1.534,1.963-2.96,4-4.177,6.147
					c-1.219,2.146-2.219,4.401-3.003,6.75c-0.784,2.35-1.389,4.779-1.968,7.233l-1.744,7.398l-0.994,4.217l-0.954-4.248
					c-0.544-2.421-1.213-4.866-1.942-7.264c-0.733-2.404-1.547-4.782-2.454-7.119c-1.828-4.652-3.99-9.233-6.999-13.114l1.778-0.741
					c0.212,1.752,0.044,3.483-0.292,5.134c-0.339,1.655-0.852,3.244-1.435,4.786l-1.967,5.201l0.032-5.558
					c0.019-3.366-1.076-6.675-2.771-9.658c-0.845-1.485-1.826-2.959-2.893-4.279c-1.077-1.333-2.3-2.565-3.589-3.743
					c-2.58-2.359-5.431-4.494-8.131-6.904c-2.688-2.397-5.271-5.149-6.927-8.537l1.85-0.136c-1.038,3.246-1.374,6.718-0.962,10.098
					c0.407,3.38,1.573,6.666,3.419,9.518l2.367,3.656l-3.725-2.258c-2.669-1.617-4.953-3.876-6.563-6.565
					c-1.615-2.681-2.526-5.812-2.52-8.966l1.835,0.551c-2.102,3.186-3.473,6.979-3.068,10.676l0.203,1.85l-1.661-0.854
					c-2.721-1.4-5.06-3.577-6.69-6.15c-1.651-2.606-2.596-5.377-3.716-8.025c-1.092-2.651-2.248-5.235-3.92-7.418
					c-1.646-2.187-3.828-3.973-6.348-4.685l1.138-1.518c1.586,2.532,2.504,5.4,2.917,8.29c0.416,2.895,0.346,5.837-0.174,8.695
					l-0.443,2.436l-1.035-2.22c-0.982-2.106-2.36-4.025-4.066-5.62c-1.702-1.599-3.715-2.877-5.873-3.833
					c-4.304-1.904-9.314-2.269-13.897-0.971l0.031-0.586c2.565,1.123,4.759,2.984,6.377,5.218c1.627,2.236,2.712,4.824,3.281,7.499
					c-0.671-2.651-1.851-5.176-3.533-7.308c-1.672-2.135-3.876-3.838-6.368-4.834l-0.803-0.321l0.834-0.266
					c4.682-1.491,9.896-1.301,14.504,0.558c2.29,0.927,4.463,2.203,6.343,3.857c1.882,1.648,3.445,3.676,4.579,5.918l-1.478,0.215
					c0.402-2.702,0.374-5.471-0.1-8.144c-0.48-2.668-1.406-5.248-2.818-7.501l-1.399-2.232l2.537,0.714
					c3.098,0.872,5.558,3.037,7.384,5.428c1.855,2.426,3.072,5.187,4.179,7.869c1.121,2.671,2.086,5.415,3.549,7.704
					c1.47,2.31,3.508,4.206,5.935,5.459l-1.457,0.996c-0.239-2.154,0.049-4.321,0.671-6.34c0.623-2.024,1.568-3.916,2.715-5.657
					l1.84-2.794l-0.005,3.345c-0.004,2.779,0.796,5.545,2.236,7.938c1.435,2.398,3.486,4.429,5.883,5.882l-1.358,1.398
					c-2.016-3.113-3.283-6.693-3.725-10.362c-0.447-3.671-0.083-7.431,1.043-10.949l0.759-2.373l1.092,2.237
					c1.484,3.041,3.858,5.604,6.464,7.926c2.611,2.334,5.469,4.474,8.147,6.919c1.337,1.222,2.632,2.523,3.793,3.959
					c1.168,1.45,2.166,2.951,3.083,4.557c1.813,3.184,3.052,6.859,3.029,10.645l-1.935-0.357c0.558-1.475,1.037-2.969,1.346-4.477
					c0.307-1.505,0.444-3.031,0.266-4.49l-0.439-3.607l2.218,2.866c3.216,4.156,5.415,8.865,7.292,13.627
					c0.927,2.391,1.757,4.814,2.503,7.26c0.744,2.453,1.417,4.902,1.985,7.429l-1.949-0.03l1.74-7.378
					c0.584-2.47,1.2-4.958,2.019-7.41c0.818-2.452,1.877-4.845,3.158-7.098c1.279-2.257,2.764-4.376,4.346-6.399l2.214-2.832
					l-0.435,3.573c-0.178,1.458-0.041,2.984,0.266,4.49c0.309,1.508,0.788,3.002,1.346,4.477l-1.935,0.357
					c-0.023-3.787,1.216-7.461,3.029-10.645c0.917-1.605,1.914-3.107,3.083-4.557c1.161-1.436,2.456-2.737,3.793-3.959
					c2.678-2.445,5.536-4.585,8.147-6.919c2.606-2.322,4.98-4.885,6.464-7.926l1.092-2.237l0.759,2.373
					c1.125,3.518,1.49,7.278,1.043,10.949c-0.442,3.67-1.71,7.249-3.725,10.362l-1.358-1.398c2.398-1.453,4.448-3.484,5.883-5.882
					c1.44-2.393,2.24-5.16,2.236-7.938l-0.005-3.345l1.84,2.794c1.147,1.742,2.092,3.634,2.715,5.657
					c0.622,2.018,0.91,4.185,0.671,6.34l-1.457-0.996c2.427-1.254,4.465-3.149,5.935-5.459c1.463-2.289,2.428-5.033,3.549-7.704
					c1.107-2.682,2.324-5.443,4.179-7.869c1.826-2.39,4.283-4.559,7.383-5.431l2.551-0.717l-1.409,2.241
					c-1.416,2.252-2.321,4.837-2.808,7.501c-0.474,2.671-0.502,5.439-0.101,8.14l-1.501-0.218c1.135-2.243,2.699-4.272,4.582-5.921
					c1.881-1.655,4.055-2.932,6.346-3.858c4.61-1.86,9.827-2.049,14.51-0.557l0.857,0.273l-0.825,0.33
					c-2.489,0.996-4.695,2.695-6.367,4.829C342.539,203.923,341.357,206.447,340.684,209.098z"/>
			</g>
			<g>
				<path style="fill:#4D080C;" d="M263.76,400.304c-0.878,0-1.759-0.01-2.649-0.025c-0.552-0.01-0.992-0.465-0.982-1.018
					c0.01-0.552,0.475-0.944,1.018-0.982c9.042,0.155,20.306,0.35,31.801-11.037c0.393-0.388,1.025-0.385,1.415,0.007
					c0.389,0.393,0.385,1.026-0.007,1.415C284.03,398.89,274.297,400.304,263.76,400.304z"/>
			</g>
			<g>
				<path style="fill:#4D080C;" d="M279.432,354.862c-0.234,0-0.463-0.082-0.646-0.236c-3.877-3.277-5.891-8.838-5.01-13.839
					l1.969,0.348c-0.671,3.811,0.688,8.155,3.35,11.024c1.809-4.336,2.586-9.063,2.251-13.757l1.994-0.143
					c0.393,5.502-0.646,11.045-3.004,16.03c-0.133,0.28-0.389,0.483-0.692,0.55C279.574,354.854,279.502,354.862,279.432,354.862z"
					/>
			</g>
			<g>
				<path style="fill:#4D080C;" d="M276.627,341.305c-1.095,0-1.981-0.278-2.643-0.83c-0.745-0.625-1.203-1.633-1.255-2.768
					c-0.042-0.912,0.161-1.779,0.341-2.545c0.126-0.537,0.66-0.869,1.202-0.745c0.537,0.126,0.871,0.664,0.745,1.202
					c-0.157,0.669-0.319,1.362-0.29,1.996c0.026,0.568,0.229,1.063,0.54,1.325c0.344,0.286,0.916,0.409,1.693,0.353
					c1.521-0.101,3.83-1.504,5.183-2.803c0.399-0.381,1.032-0.37,1.414,0.029c0.382,0.398,0.369,1.031-0.029,1.414
					c-1.579,1.515-4.266,3.211-6.434,3.355C276.935,341.3,276.78,341.305,276.627,341.305z"/>
			</g>
			<g>
				<path style="fill:#4D080C;" d="M270.975,341.866c-0.33,0-0.659-0.019-0.985-0.057c-1.132-0.133-1.998-0.478-2.651-1.056
					c-0.785-0.696-1.263-1.759-1.344-2.991c-0.065-0.997,0.124-1.966,0.292-2.819c0.107-0.542,0.631-0.898,1.174-0.789
					c0.542,0.106,0.896,0.632,0.789,1.174c-0.151,0.771-0.308,1.566-0.259,2.304c0.046,0.693,0.291,1.285,0.674,1.625
					c0.332,0.293,0.855,0.484,1.557,0.566c1.256,0.147,2.57-0.075,3.708-0.627c0.502-0.238,1.096-0.03,1.336,0.465
					c0.24,0.497,0.032,1.095-0.465,1.336C273.621,341.568,272.292,341.866,270.975,341.866z"/>
			</g>
			<g>
				<path style="fill:#4D080C;" d="M263.988,342.792c-1.085,0-2.098-0.388-2.768-1.103c-0.553-0.59-0.896-1.4-0.993-2.341
					c-0.065-0.626-0.099-1.345-0.099-2.136c0-0.553,0.447-1,1-1c0.553,0,1,0.447,1,1c0,0.722,0.029,1.37,0.088,1.929
					c0.052,0.498,0.216,0.917,0.464,1.181c0.482,0.515,1.372,0.557,2.041,0.368c0.887-0.25,1.707-0.859,2.5-1.449
					c0.444-0.33,1.07-0.237,1.399,0.206c0.329,0.443,0.237,1.069-0.206,1.399c-0.895,0.665-1.909,1.419-3.151,1.77
					C264.837,342.735,264.408,342.792,263.988,342.792z"/>
			</g>
			<g>
				<path style="fill:#4D080C;" d="M271.142,351.476c-0.18,0-0.361-0.049-0.525-0.15c-1.475-0.913-2.206-2.374-2.629-3.394
					c-1.033-2.498-1.49-5.244-1.321-7.942c0.034-0.552,0.51-0.965,1.061-0.936c0.551,0.034,0.97,0.509,0.936,1.061
					c-0.149,2.396,0.256,4.835,1.173,7.053c0.318,0.768,0.659,1.353,1.054,1.797c1.38-2.443,2.201-5.183,2.388-7.988
					c0.037-0.551,0.521-0.952,1.064-0.932c0.551,0.037,0.968,0.514,0.932,1.065c-0.235,3.521-1.373,6.948-3.29,9.911
					C271.791,351.315,271.47,351.476,271.142,351.476z"/>
			</g>
			<g>
				<path style="fill:#4D080C;" d="M264.473,349.439c-0.22,0-0.436-0.072-0.612-0.209c-0.782-0.605-1.465-1.391-2.03-2.334
					c-1.16-1.936-1.701-3.93-1.702-6.277c0-0.552,0.447-1,1-1l0,0c0.552,0,1,0.447,1,1c0.001,1.969,0.451,3.638,1.418,5.249
					c0.216,0.36,0.451,0.689,0.705,0.983c0.832-1.608,1.395-3.645,1.709-6.181c0.068-0.549,0.569-0.94,1.115-0.869
					c0.548,0.067,0.938,0.567,0.869,1.115c-0.426,3.43-1.29,6.073-2.643,8.081c-0.154,0.229-0.396,0.385-0.67,0.429
					C264.579,349.435,264.526,349.439,264.473,349.439z"/>
			</g>
			<g>
				<path style="fill:#4D080C;" d="M278.837,397.989c-0.392,0-0.765-0.232-0.924-0.617c-0.769-1.857-1.237-3.402-1.474-4.864
					c-0.435-2.689-0.01-5.183,1.228-7.21c0.249-0.405,0.745-0.58,1.196-0.418c3.28,1.195,7.438,4.873,9.076,8.031
					c0.254,0.49,0.063,1.094-0.427,1.349c-0.491,0.254-1.095,0.064-1.349-0.427c-1.266-2.439-4.519-5.442-7.191-6.735
					c-0.669,1.471-0.862,3.213-0.559,5.092c0.211,1.304,0.639,2.707,1.347,4.417c0.211,0.511-0.031,1.096-0.541,1.307
					C279.095,397.964,278.965,397.989,278.837,397.989z"/>
			</g>
			<g>
				<path style="fill:#4D080C;" d="M269.967,399.278c-0.534,0-0.978-0.423-0.998-0.962c-0.116-3.017,0.596-6.352,1.857-8.702
					c0.253-0.473,0.833-0.663,1.318-0.427c2.975,1.446,5.314,4.554,5.819,7.733c0.087,0.546-0.285,1.058-0.83,1.145
					c-0.555,0.091-1.058-0.285-1.145-0.83c-0.351-2.205-1.876-4.444-3.841-5.746c-0.813,1.953-1.269,4.489-1.182,6.751
					c0.021,0.552-0.409,1.017-0.961,1.037C269.994,399.278,269.981,399.278,269.967,399.278z"/>
			</g>
			<g>
				<path style="fill:#4D080C;" d="M261.129,400.16c-0.037,0-0.074-0.002-0.111-0.006c-0.549-0.061-0.944-0.556-0.884-1.104
					c0.327-2.941,1.719-5.825,3.92-8.121c0.186-0.194,0.444-0.306,0.714-0.308c0.002,0,0.005,0,0.008,0
					c0.267,0,0.522,0.106,0.711,0.296c2.07,2.091,3.383,4.854,3.695,7.781c0.059,0.55-0.339,1.042-0.888,1.101
					c-0.551,0.06-1.042-0.339-1.1-0.888c-0.227-2.121-1.073-4.141-2.412-5.788c-1.483,1.824-2.418,3.972-2.659,6.148
					C262.066,399.783,261.632,400.16,261.129,400.16z"/>
			</g>
			<g>
				<path style="fill:#4D080C;" d="M301.054,373.172c0.94-4.492,2.447-8.851,4.577-12.905c2.151-4.039,4.825-7.727,7.713-11.201
					c1.444-1.738,2.95-3.419,4.482-5.072c1.532-1.65,3.083-3.268,4.461-5.025c1.376-1.753,2.582-3.658,3.331-5.765
					c0.763-2.09,1.065-4.389,0.618-6.601c0.53,2.193,0.316,4.532-0.381,6.681c-0.681,2.167-1.839,4.158-3.168,5.986
					c-1.332,1.834-2.837,3.524-4.301,5.224c-1.463,1.701-2.896,3.425-4.261,5.197c-2.728,3.539-5.221,7.271-7.154,11.251
					c-1.909,3.983-3.211,8.259-3.951,12.596l-0.001,0.006c-0.093,0.545-0.61,0.911-1.154,0.818c-0.544-0.093-0.911-0.61-0.818-1.154
					C301.049,373.197,301.052,373.182,301.054,373.172z"/>
			</g>
			<g>
				<path style="fill:#4D080C;" d="M329.126,340.794c2.125-0.238,4.342,0.234,6.215,1.347c0.945,0.555,1.759,1.337,2.393,2.235
					c0.641,0.897,1.105,1.9,1.491,2.915l0.219,0.576l-0.622-0.119c-3.792-0.727-7.83,0.109-10.974,2.219
					c-3.151,2.106-5.439,5.451-6.163,9.089l-1.007-1.088c3.23-0.557,6.353-1.562,8.959-3.34l3.134-2.14l-1.639,3.402
					c-0.997,2.069-2.646,3.691-4.405,4.927c-1.768,1.249-3.663,2.188-5.517,3.092c-1.843,0.897-3.651,1.788-5.238,2.916
					c-1.583,1.119-2.918,2.507-3.637,4.196l-1.349-1.298c1.855-0.891,3.932-1.351,5.989-1.32c2.059,0.022,4.076,0.5,5.939,1.258
					l3.78,1.538l-4.06,0.383c-3.134,0.296-5.933,2.319-7.962,4.874c-2.08,2.562-3.333,5.71-4.45,8.951
					c-1.123,3.241-2.083,6.629-3.744,9.84c-1.659,3.212-4.011,5.989-6.612,8.388c-2.613,2.399-5.468,4.464-8.354,6.412l-2.17,1.449
					c-0.728,0.477-1.422,0.952-2.244,1.436c-1.612,0.902-3.324,1.53-5.051,2.004c-3.467,0.916-7.002,1.27-10.514,1.372
					c-3.523,0.092-7.005-0.053-10.531-0.46l0.261,0c-6.994,0.911-14.184,0.572-21.025-1.314c-6.841-1.868-13.236-5.512-18.22-10.608
					c-2.48-2.555-4.621-5.459-6.233-8.654c-1.638-3.2-2.621-6.602-3.738-9.843c-1.118-3.245-2.37-6.397-4.451-8.963
					c-2.029-2.559-4.83-4.587-7.968-4.883l-4.061-0.383l3.78-1.539c1.863-0.758,3.879-1.236,5.938-1.258
					c2.056-0.031,4.134,0.43,5.989,1.32l-1.349,1.298c-0.719-1.689-2.053-3.077-3.637-4.196c-1.587-1.128-3.395-2.019-5.238-2.916
					c-1.853-0.904-3.748-1.843-5.517-3.092c-1.759-1.235-3.406-2.859-4.402-4.928l-1.626-3.379l3.118,2.12
					c2.607,1.773,5.725,2.8,8.958,3.351l-0.992,1.073c-0.726-3.641-3.017-6.988-6.17-9.095c-3.147-2.111-7.188-2.946-10.982-2.218
					l-0.605,0.116l0.213-0.561c0.384-1.015,0.85-2.016,1.489-2.913c0.633-0.898,1.445-1.68,2.389-2.235
					c1.87-1.114,4.087-1.588,6.212-1.352c-2.135-0.121-4.283,0.476-6.025,1.647c-0.87,0.579-1.589,1.353-2.14,2.232
					c-0.553,0.88-0.958,1.849-1.283,2.847l-0.393-0.445c3.937-0.943,8.256-0.285,11.784,1.848c3.517,2.126,6.221,5.653,7.241,9.738
					l0.308,1.234l-1.3-0.161c-1.711-0.212-3.427-0.542-5.106-1.079c-1.677-0.539-3.296-1.334-4.756-2.375l1.491-1.259
					c0.769,1.674,2.149,3.04,3.736,4.162c1.594,1.128,3.397,2.031,5.236,2.926c1.849,0.902,3.751,1.829,5.523,3.085
					c1.76,1.24,3.41,2.911,4.312,5.033l1.039,2.442l-2.388-1.143c-1.591-0.761-3.34-1.15-5.105-1.125
					c-1.766,0.019-3.535,0.43-5.206,1.11l-0.281-1.921c1.901,0.199,3.729,0.88,5.29,1.9c1.578,1.004,2.908,2.309,4.049,3.727
					c2.31,2.855,3.647,6.276,4.779,9.56c1.136,3.307,2.098,6.604,3.631,9.59c1.513,3.001,3.532,5.741,5.88,8.16
					c4.725,4.83,10.792,8.295,17.324,10.079c6.541,1.805,13.482,2.139,20.228,1.259l0.124-0.016l0.138,0.016
					c3.355,0.388,6.813,0.535,10.214,0.443c3.405-0.097,6.811-0.447,10.048-1.303c1.609-0.441,3.172-1.021,4.585-1.812
					c0.672-0.395,1.41-0.893,2.13-1.367l2.151-1.436c2.853-1.925,5.625-3.936,8.119-6.225c2.482-2.29,4.668-4.885,6.194-7.842
					c1.535-2.954,2.491-6.27,3.627-9.567c1.131-3.281,2.47-6.697,4.778-9.548c1.141-1.415,2.469-2.719,4.047-3.721
					c1.56-1.018,3.387-1.698,5.285-1.896l-0.281,1.921c-1.671-0.68-3.44-1.091-5.206-1.11c-1.765-0.025-3.514,0.364-5.105,1.125
					l-2.388,1.143l1.039-2.442c0.902-2.121,2.553-3.792,4.313-5.033c1.772-1.257,3.674-2.183,5.523-3.085
					c1.839-0.895,3.642-1.797,5.236-2.926c1.588-1.121,2.965-2.49,3.733-4.164l1.495,1.262c-1.461,1.037-3.077,1.842-4.754,2.38
					c-1.676,0.549-3.396,0.87-5.107,1.085l-1.32,0.166l0.313-1.254c1.021-4.089,3.728-7.617,7.248-9.745
					c3.531-2.134,7.852-2.792,11.792-1.848l-0.403,0.457c-0.324-0.998-0.731-1.966-1.281-2.845c-0.55-0.879-1.267-1.652-2.136-2.232
					C333.408,341.274,331.261,340.676,329.126,340.794z"/>
			</g>
			<g>
				<path style="fill:#4D080C;" d="M313.758,183.794c1.252-3.705,0.327-7.89-2.004-10.816l0.681-0.132
					c-0.509,2.14-1.522,4.154-2.859,5.906c-1.338,1.757-2.987,3.267-4.813,4.511l-0.91,0.62l-0.24-1.116
					c-0.435-2.025-0.685-4.108-0.6-6.231c0.087-2.106,0.522-4.33,1.776-6.237l1.25,1.494c-3.786,1.545-7.171,4.08-9.836,7.184
					c-2.658,3.107-4.589,6.869-5.241,10.869l-0.949,5.823l-1.02-5.799c-0.258-1.467-1.264-2.842-2.16-4.477l1.871-0.34
					c-0.378,2.745-1.349,5.368-2.725,7.732c-1.381,2.364-3.173,4.486-5.308,6.219l-2.212,1.796l0.605-2.785
					c0.746-3.431,0.034-7.213-1.989-10.068l1.797-0.386c-0.659,3.387-2.157,6.503-3.912,9.336c-1.761,2.844-3.784,5.456-5.709,8.081
					c-1.883,2.545-3.29,5.417-4.393,8.428c-1.107,3.012-1.927,6.152-2.73,9.318l-0.928,3.654l-1.008-3.644
					c-0.859-3.104-1.846-6.217-2.986-9.235c-1.15-3.004-2.416-6.02-4.205-8.532c-1.924-2.623-3.944-5.234-5.704-8.076
					c-1.754-2.832-3.25-5.946-3.908-9.331l1.797,0.386c-2.023,2.855-2.735,6.636-1.989,10.068l0.605,2.785l-2.212-1.796
					c-2.135-1.733-3.927-3.855-5.308-6.219c-1.377-2.365-2.347-4.988-2.726-7.732l1.871,0.34c-0.896,1.635-1.902,3.01-2.16,4.477
					l-1.02,5.799l-0.95-5.823c-0.652-4-2.583-7.762-5.241-10.869c-2.665-3.105-6.052-5.636-9.835-7.186l1.247-1.49
					c1.259,1.906,1.672,4.134,1.765,6.236c0.085,2.122-0.164,4.204-0.599,6.228l-0.236,1.098l-0.895-0.61
					c-1.825-1.243-3.474-2.752-4.811-4.508c-1.336-1.752-2.35-3.764-2.858-5.902l0.665,0.129c-2.334,2.928-3.253,7.118-1.997,10.821
					c-1.494-3.603-0.938-8.008,1.395-11.275l0.442-0.618l0.224,0.748c0.597,1.995,1.657,3.826,3.002,5.395
					c1.346,1.573,2.971,2.897,4.74,3.96l-1.131,0.488c0.303-1.943,0.42-3.917,0.232-5.828c-0.188-1.907-0.713-3.744-1.646-5.259
					l-1.696-2.753l2.943,1.263c4.064,1.744,7.705,4.406,10.571,7.763c2.86,3.344,4.972,7.425,5.695,11.847l-1.969-0.025
					c0.189-1.013,0.6-1.939,1.046-2.757c0.447-0.823,0.924-1.563,1.319-2.298l1.445-2.685l0.426,3.024
					c0.692,4.907,3.457,9.526,7.311,12.668l-1.606,0.989c-0.856-3.982-0.056-8.288,2.311-11.647l1.35-1.917l0.447,2.302
					c0.594,3.058,1.965,5.949,3.647,8.663c1.685,2.723,3.672,5.296,5.615,7.944c2.008,2.832,3.274,5.924,4.464,9.009
					c1.17,3.101,2.163,6.229,3.048,9.428l-1.936,0.011c0.807-3.175,1.64-6.38,2.792-9.516c1.145-3.129,2.642-6.198,4.658-8.921
					c1.945-2.65,3.934-5.225,5.62-7.95c1.683-2.716,3.056-5.609,3.65-8.669l0.447-2.302l1.351,1.917
					c2.367,3.359,3.167,7.665,2.311,11.647l-1.607-0.989c3.853-3.143,6.619-7.761,7.311-12.668l0.426-3.024l1.444,2.685
					c0.395,0.735,0.872,1.476,1.319,2.298c0.445,0.818,0.856,1.744,1.046,2.757l-1.969,0.025c0.723-4.422,2.835-8.503,5.695-11.847
					c2.865-3.358,6.508-6.017,10.57-7.766l2.97-1.279l-1.72,2.773c-0.939,1.513-1.441,3.354-1.635,5.258
					c-0.188,1.91-0.072,3.883,0.23,5.825l-1.149-0.496c3.523-2.106,6.537-5.334,7.74-9.347l0.229-0.765l0.452,0.633
					C314.706,175.783,315.256,180.192,313.758,183.794z"/>
			</g>
			<g>
				<path style="fill:#4D080C;" d="M296.599,161.227c-0.108-3.555,0.402-7.239,2.104-10.522l0.564,0.662
					c-2.798,1.184-5.276,3.062-7.108,5.403c-0.915,1.169-1.667,2.454-2.21,3.809c-0.546,1.35-0.985,2.743-1.16,4.188l-0.28,2.315
					l-1.487-1.795l-6.914-8.345l1.749-0.854c0.778,3.432,0.709,7.041-0.149,10.441c-0.853,3.403-2.478,6.599-4.694,9.309
					l-0.836,1.022l-0.754-1.076c-1.144-1.633-1.954-3.41-2.569-5.245c-0.6-1.84-1.008-3.749-1.068-5.74l1.765,0.62
					c-2.983,3.545-5.096,7.784-6.819,12.167c-1.73,4.395-3.084,8.967-4.661,13.511l-1.052,3.03l-0.859-3.099
					c-0.628-2.265-1.345-4.544-2.105-6.787c-0.762-2.247-1.587-4.471-2.482-6.661c-0.901-2.187-1.876-4.34-2.98-6.407
					c-1.113-2.053-2.343-4.061-3.858-5.719l1.733-0.656c-0.06,1.991-0.468,3.9-1.068,5.74c-0.615,1.835-1.425,3.612-2.569,5.245
					l-0.754,1.076l-0.836-1.022c-2.216-2.71-3.841-5.906-4.694-9.309c-0.858-3.4-0.927-7.009-0.15-10.441l1.749,0.854l-6.914,8.345
					l-1.493,1.802l-0.274-2.322c-0.171-1.446-0.612-2.838-1.147-4.194c-0.545-1.356-1.297-2.641-2.213-3.811
					c-1.833-2.342-4.313-4.221-7.114-5.404l0.552-0.648c1.701,3.281,2.215,6.962,2.113,10.517c-0.103-1.782-0.379-3.549-0.851-5.252
					c-0.476-1.699-1.126-3.347-2.047-4.816l-0.662-1.056l1.214,0.408c3.025,1.016,5.825,2.798,8.027,5.205
					c1.099,1.203,2.047,2.563,2.78,4.049c0.743,1.484,1.151,3.126,1.336,4.775l-1.767-0.519l6.914-8.345l2.673-3.227l-0.924,4.08
					c-0.706,3.119-0.646,6.405,0.139,9.514c0.779,3.111,2.269,6.043,4.302,8.53l-1.59,0.054c0.988-1.407,1.741-3.038,2.301-4.715
					c0.551-1.681,0.918-3.439,0.967-5.16l0.072-2.48l1.662,1.824c1.714,1.881,2.989,3.993,4.154,6.134
					c1.149,2.15,2.147,4.359,3.067,6.592c0.914,2.236,1.752,4.496,2.526,6.777c0.774,2.285,1.493,4.568,2.143,6.911l-1.91-0.068
					c1.557-4.482,2.918-9.084,4.689-13.586c1.766-4.488,3.963-8.932,7.15-12.723l1.689-2.009l0.076,2.629
					c0.05,1.72,0.417,3.479,0.967,5.16c0.56,1.678,1.313,3.308,2.301,4.715l-1.59-0.054c2.034-2.486,3.523-5.419,4.302-8.53
					c0.784-3.109,0.845-6.395,0.138-9.514l-0.924-4.08l2.673,3.227l6.914,8.345l-1.767,0.519c0.181-1.65,0.591-3.291,1.323-4.78
					c0.734-1.486,1.683-2.847,2.783-4.051c2.204-2.408,5.006-4.19,8.033-5.206l1.241-0.416l-0.677,1.079
					c-0.921,1.467-1.57,3.115-2.048,4.812C296.983,157.679,296.704,159.445,296.599,161.227z"/>
			</g>
			<g>
				<path style="fill:#4D080C;" d="M205.939,152.305c-0.094,0-0.189-0.014-0.283-0.042c-0.53-0.156-0.833-0.712-0.676-1.242
					c2.343-7.948-0.082-17.126-6.035-22.837l-2.834-2.719l3.789,1.032c7.691,2.095,14.444,6.083,19.671,11.594
					c0.582-3.977,2.685-7.835,5.802-10.47l1.234-1.043l0.383,1.57c0.49,2.008,1.887,4.021,3.833,5.521
					c1.555,1.198,3.443,1.909,5.393,2.044c0.671-4.122,3.34-7.787,7.133-9.71l1.48-0.75l-0.028,1.659
					c-0.04,2.352,2.538,4.895,5.202,5.134c2.225,0.209,4.594-0.98,7.065-3.509c1.706-1.744,2.812-6.265,3.095-7.86l0.987-5.578
					l0.982,5.579c0.611,3.478,1.606,6.001,3.128,7.94c1.835,2.336,4.518,3.654,6.993,3.427c2.666-0.239,5.242-2.782,5.202-5.134
					l-0.028-1.66l1.48,0.751c3.793,1.923,6.462,5.587,7.134,9.71c1.95-0.135,3.838-0.846,5.393-2.044
					c1.946-1.5,3.344-3.513,3.834-5.521l0.384-1.569l1.233,1.043c3.116,2.634,5.22,6.493,5.802,10.47
					c5.226-5.51,11.978-9.499,19.671-11.594l3.789-1.032l-2.834,2.719c-5.953,5.711-8.378,14.889-6.035,22.837
					c0.156,0.53-0.146,1.086-0.676,1.242c-0.536,0.158-1.087-0.147-1.242-0.676c-2.198-7.456-0.538-15.907,4.115-22.078
					c-6.668,2.424-12.446,6.413-16.861,11.667l-1.812,2.156l0.046-2.816c0.061-3.664-1.541-7.572-4.162-10.333
					c-0.811,1.888-2.224,3.679-4.031,5.072c-2.141,1.65-4.816,2.508-7.511,2.482l-0.899-0.017l-0.078-0.896
					c-0.294-3.343-2.142-6.414-4.926-8.306c-0.835,2.971-3.948,5.264-6.808,5.521c-3.157,0.285-6.498-1.321-8.745-4.184
					c-1.063-1.354-1.91-2.98-2.559-4.921c-0.592,1.802-1.457,3.802-2.632,5.002c-2.912,2.978-5.828,4.362-8.674,4.103
					c-2.859-0.257-5.973-2.55-6.808-5.521c-2.784,1.892-4.632,4.963-4.925,8.306l-0.079,0.896l-0.899,0.017
					c-2.697,0.05-5.37-0.832-7.511-2.482c-1.807-1.393-3.22-3.184-4.031-5.072c-2.621,2.762-4.222,6.669-4.162,10.333l0.046,2.816
					l-1.812-2.155c-4.415-5.254-10.194-9.243-16.861-11.667c4.653,6.171,6.314,14.622,4.115,22.078
					C206.77,152.022,206.371,152.304,205.939,152.305z"/>
			</g>
			<g>
				<path style="fill:#4D080C;" d="M383.169,297.442c1.937,2.478,4.264,4.627,6.864,6.338c2.603,1.71,5.491,2.948,8.486,3.681
					l1.302,0.318l-1.196,0.645c-2.61,1.408-5.572,2.071-8.524,2.111c-2.954,0.017-5.938-0.587-8.633-1.928l0.965-1.231
					c1.611,1.782,2.752,4.033,3.178,6.424c0.443,2.39,0.216,4.863-0.49,7.149l-0.796,2.578l-0.954-2.535
					c-1.046-2.778-3.362-5.058-6.188-5.826l1.1-1.434c2.517,4.197,3.852,9.068,3.938,13.933c0.101,4.866-0.916,9.736-2.936,14.145
					l-0.752,1.641l-0.908-1.541c-2.462-4.178-5.951-7.731-9.983-10.47c-4.043-2.729-8.677-4.618-13.516-5.433l0.62-0.711
					c0.877,3.219,2.977,6.15,5.856,7.977l0.549,0.348l-0.598,0.211c-1.668,0.588-3.406,0.978-5.166,1.1
					c-1.757,0.119-3.538-0.064-5.2-0.597c1.696,0.422,3.457,0.457,5.167,0.247c1.714-0.208,3.387-0.678,4.976-1.332l-0.049,0.559
					c-3.101-1.757-5.546-4.723-6.613-8.2l-0.252-0.821l0.872,0.11c5.043,0.636,9.929,2.461,14.229,5.209
					c4.309,2.736,8.018,6.455,10.714,10.835l-1.659,0.1c1.837-4.186,2.8-8.768,2.67-13.327c-0.129-4.549-1.307-9.081-3.632-12.986
					l-1.25-2.1l2.35,0.666c1.716,0.486,3.297,1.416,4.566,2.648c1.275,1.23,2.231,2.761,2.83,4.406l-1.75,0.042
					c0.663-2.032,0.891-4.202,0.54-6.287c-0.346-2.084-1.282-4.052-2.663-5.679l-2.706-3.189l3.672,1.957
					c2.397,1.278,5.153,1.922,7.909,1.983c2.755,0.066,5.557-0.452,8.037-1.673l0.105,0.963c-3.08-0.892-5.976-2.346-8.54-4.219
					C387.14,302.378,384.915,300.061,383.169,297.442z"/>
			</g>
			<g>
				<g>
					<path style="fill:#4D080C;" d="M296.392,289.72c14.977-10.434,32.445-17.173,50.466-19.511
						c18.021-2.337,36.549-0.266,53.539,5.947c-17.102-5.899-35.588-7.602-53.401-4.957c-17.814,2.645-34.927,9.633-49.445,20.151
						c-0.447,0.324-1.073,0.224-1.397-0.223c-0.324-0.447-0.224-1.073,0.223-1.397C296.38,289.728,296.388,289.723,296.392,289.72z"
						/>
				</g>
				<g>
					<path style="fill:#4D080C;" d="M298.489,296.862c26.161-6.026,54.014-3.863,78.76,5.997
						c-24.985-9.238-52.687-10.632-78.286-4.054c-0.535,0.137-1.08-0.185-1.217-0.72c-0.137-0.535,0.185-1.08,0.72-1.217
						C298.471,296.866,298.482,296.863,298.489,296.862z"/>
				</g>
				<g>
					<path style="fill:#4D080C;" d="M298.9,304.479c36.592-3.021,73.985,8.224,102.689,30.7
						c-29.11-21.947-66.493-32.351-102.505-28.708c-0.55,0.056-1.04-0.345-1.096-0.894s0.345-1.04,0.894-1.096
						C298.886,304.48,298.895,304.479,298.9,304.479z"/>
				</g>
				<g>
					<path style="fill:#4D080C;" d="M298.992,310.422c23.195,2.827,44.422,17.175,55.644,37.286
						c-11.8-19.78-33.256-33.217-55.857-35.298c-0.55-0.051-0.955-0.538-0.904-1.087c0.051-0.55,0.538-0.955,1.088-0.904
						C298.971,310.42,298.984,310.421,298.992,310.422z"/>
				</g>
			</g>
			<g>
				<path style="fill:#4D080C;" d="M257.777,349.439c-0.053,0-0.106-0.004-0.159-0.013c-0.273-0.044-0.516-0.199-0.671-0.429
					c-1.352-2.007-2.216-4.65-2.643-8.081c-0.068-0.548,0.321-1.047,0.869-1.115c0.543-0.074,1.048,0.32,1.116,0.869
					c0.315,2.536,0.877,4.572,1.709,6.181c0.253-0.294,0.489-0.623,0.705-0.982c0.966-1.613,1.417-3.281,1.418-5.25
					c0-0.553,0.448-1,1-1l0,0c0.553,0,1,0.448,1,1c-0.001,2.347-0.542,4.342-1.702,6.277c-0.564,0.942-1.247,1.727-2.03,2.334
					C258.213,349.366,257.997,349.439,257.777,349.439z"/>
			</g>
			<g>
				<path style="fill:#4D080C;" d="M303.421,363.387c0.405-4.688,1.945-9.233,4.433-13.127c1.228-1.947,2.602-3.751,3.797-5.666
					c1.194-1.905,2.222-3.954,2.618-6.203c-0.227,2.271-1.117,4.438-2.184,6.452c-1.067,2.024-2.313,3.938-3.366,5.919
					c-2.124,3.933-3.244,8.343-3.301,12.724c-0.007,0.553-0.461,0.995-1.013,0.988c-0.553-0.007-0.995-0.461-0.988-1.013
					C303.418,363.436,303.419,363.41,303.421,363.387z"/>
			</g>
			<g>
				<path style="fill:#4D080C;" d="M316.04,239.007c1.183,1.571,1.516,3.745,0.857,5.598c-0.659,1.853-2.289,3.329-4.198,3.801
					c-1.909,0.472-4.04-0.075-5.486-1.408"/>
			</g>
			<g>
				<path style="fill:#4D080C;" d="M239.85,334.809c-0.363,1.215-0.285,2.634,0.515,3.617c0.978,1.201,2.691,1.435,4.232,1.582
					c3.205,0.305,6.409,0.61,9.614,0.914c2.508,0.239,5.022,0.477,7.541,0.436c1.847-0.031,3.687-0.212,5.526-0.393
					c2.8-0.276,5.601-0.552,8.401-0.829c1.389-0.137,2.801-0.279,4.091-0.811c1.29-0.532,2.465-1.518,2.881-2.85
					c0.511-1.637-0.238-3.462-1.456-4.669c-2.24-2.219-5.658-2.634-8.807-2.804c-9.348-0.505-18.772,0.079-27.95,1.954
					c-0.906,0.185-2.271,0.218-2.971,0.869C240.723,332.516,240.135,333.855,239.85,334.809z"/>
			</g>
			<g>
				<path style="fill:#4D080C;" d="M237.818,388.15c0.215-0.041,0.477-0.066,0.616,0.103c0.183,0.22-0.005,0.544-0.188,0.763
					c-0.913,1.09-1.826,2.181-2.739,3.271c-0.161,0.192-0.334,0.393-0.57,0.477c-0.417,0.148-0.858-0.113-1.223-0.362
					c-0.579-0.394-1.164-0.795-1.624-1.322c-0.269-0.309-0.933-1.163-0.652-1.598c0.248-0.383,1.375-0.388,1.768-0.462
					C234.742,388.73,236.28,388.44,237.818,388.15z"/>
			</g>
			<g>
				<path style="fill:#4D080C;" d="M284.229,389.108c-0.192-0.345-0.368-0.77-0.186-1.12c0.136-0.263,0.446-0.4,0.742-0.412
					c0.296-0.012,0.585,0.08,0.868,0.171c1.562,0.502,3.124,1.004,4.687,1.506c0.164,0.053,0.338,0.112,0.448,0.245
					c0.269,0.326-0.014,0.809-0.312,1.109c-0.672,0.676-2.441,2.289-3.495,1.814c-0.544-0.245-1.044-0.948-1.419-1.39
					C285.056,390.436,284.609,389.791,284.229,389.108z"/>
			</g>
			<g>
				<path style="fill:#4D080C;" d="M261.411,396.425c-0.966-1.215-2.15-2.387-3.34-3.384c-0.1-0.704-0.907-1.156-1.608-1.033
					c-0.7,0.123-1.258,0.688-1.563,1.33c-0.306,0.642-0.403,1.36-0.503,2.064c-0.101,0.704-0.215,1.422-0.55,2.049
					c-0.052,0.098-0.114,0.197-0.212,0.248c-0.328,0.169-0.605-0.301-0.68-0.663c-0.192-0.936-0.385-1.872-0.577-2.807
					c-0.141-0.684-0.285-1.379-0.609-1.998c-0.324-0.619-0.856-1.164-1.533-1.338c-0.706-0.182-1.475,0.07-2.042,0.528
					c-0.568,0.458-0.959,1.099-1.264,1.762c-0.215,0.467-0.567,1.05-1.067,0.93c-0.413-0.099-0.546-0.609-0.603-1.03
					c-0.195-1.445-0.391-2.891-0.586-4.336c-0.098-0.721-0.209-1.477-0.644-2.06c-0.436-0.583-1.309-0.909-1.913-0.503
					c-0.401,0.269-0.575,0.769-0.904,1.122c-0.329,0.353-1.032,0.47-1.215,0.023c-0.091-0.224,0.002-0.475,0.088-0.701
					c1.157-3.034,1.681-6.941,0.155-9.807c-1.521-2.855-1.72-6.029-1.09-9.203c0.594,3.273,2.215,6.353,4.578,8.695
					c2.363,2.342,5.456,3.936,8.735,4.501c-4.21-1.959-7.552-5.528-9.025-9.931c1.811,2.315,4.672,4.032,7.541,4.671
					c-2.229-1.332-3.862-3.696-4.46-6.223c1.287,1.54,3.114,2.586,5.078,3c-3.779-4.583-7.611-8.965-10.213-14.304
					c-2.602-5.34-3.913-11.531-2.415-17.278c0.662,4.11,2.034,8.046,3.609,11.899c0.23-0.22,0.78,0.036,1.078,0.148
					c1.623-2.367,3.161-4.744,4.038-7.477c1.012,1.664,2.084,3.134,3.097,4.799c0.104,0.171,0.225,0.356,0.417,0.413
					c0.382,0.115,0.682-0.324,0.839-0.691c0.332-0.772,0.663-1.543,0.995-2.315c0.327-0.76,0.679-1.555,1.334-2.061
					c0.655-0.507,1.71-0.598,2.249,0.03c0.299,0.348,0.378,0.826,0.533,1.258c0.155,0.432,0.464,0.88,0.921,0.917
					c0.505,0.041,0.889-0.426,1.176-0.844c0.57-0.831,1.14-1.661,1.711-2.492l0.444-0.15V396.425z"/>
			</g>
			<g>
				<path style="fill:#4D080C;" d="M261.411,396.425c0.965-1.215,2.15-2.387,3.34-3.384c0.1-0.704,0.351-0.357,1.052-0.234
					c0.7,0.123,0.594,0.734,0.9,1.375c0.306,0.642,1.622,0.515,1.723,1.219c0.101,0.704,0.215,1.422,0.549,2.049
					c0.052,0.098,0.114,0.197,0.212,0.248c0.328,0.169,0.605-0.301,0.68-0.663c0.192-0.936,0.385-1.872,0.577-2.807
					c0.141-0.684,0.285-1.379,0.609-1.998c0.324-0.619,0.856-1.164,1.533-1.338c0.706-0.182,1.474,0.07,2.042,0.528
					c0.568,0.458,0.959,1.099,1.264,1.762c0.215,0.467,0.567,1.05,1.067,0.93c0.413-0.099,0.546-0.609,0.603-1.03
					c0.195-1.445,0.391-2.891,0.586-4.336c0.098-0.721,0.209-1.477,0.644-2.06c0.435-0.583,1.309-0.909,1.913-0.503
					c0.401,0.269,0.575,0.769,0.904,1.122c0.329,0.353,1.032,0.47,1.215,0.023c0.091-0.224-0.002-0.475-0.088-0.701
					c-1.157-3.034-1.681-6.941-0.155-9.807c1.521-2.855,1.72-6.029,1.09-9.203c-0.594,3.273-2.215,6.353-4.578,8.695
					c-2.363,2.342-5.456,3.936-8.735,4.501c4.21-1.959,7.552-5.528,9.025-9.931c-1.811,2.315-4.672,4.032-7.541,4.671
					c2.229-1.332,3.862-3.696,4.46-6.223c-1.287,1.54-3.114,2.586-5.078,3c3.779-4.583,7.611-8.965,10.212-14.304
					c2.602-5.34,3.913-11.531,2.415-17.278c-0.662,4.11-2.034,8.046-3.609,11.899c-0.23-0.22-0.78,0.036-1.077,0.148
					c-1.624-2.367-3.161-4.744-4.039-7.477c-1.012,1.664-2.084,3.134-3.096,4.799c-0.104,0.171-0.225,0.356-0.417,0.413
					c-0.382,0.115-0.682-0.324-0.839-0.691c-0.332-0.772-0.663-1.543-0.995-2.315c-0.327-0.76-0.679-1.555-1.334-2.061
					s-1.71-0.598-2.249,0.03c-0.299,0.348-0.378,0.826-0.533,1.258c-0.155,0.432-0.464,0.88-0.921,0.917
					c-0.505,0.041-0.889-0.426-1.176-0.844c-0.57-0.831-1.14-1.661-1.71-2.492l-0.444-0.15V396.425z"/>
			</g>
			<g>
				<path style="fill:#4D080C;" d="M222.04,379.191c2.061-6.619,2.72-13.67,1.922-20.557c1.01,1.11,1.885,2.221,2.895,3.331
					c-1.584-3.012-2.424-6.285-2.678-9.679c0.849,1.596,1.962,3.149,3.225,4.442c-0.795-4.112-1.09-8.125-1.052-12.313
					c0.046-5.025-1.949-10.082-2.228-15.1c-3.377-1.893-6.916-3.673-10.293-5.566c-0.633-0.355-1.404-0.715-2.048-0.382
					c-0.613,0.316-0.792,1.146-0.611,1.811c0.181,0.665,0.628,1.219,1.011,1.792c1.547,2.311,2.132,5.118,2.607,7.859
					C217.379,349.737,217.612,364.721,222.04,379.191z"/>
			</g>
			<g>
				<path style="fill:#4D080C;" d="M300.502,379.191c-2.061-6.619-2.721-13.67-1.922-20.557c-1.01,1.11-1.885,2.221-2.895,3.331
					c1.584-3.012,2.424-6.285,2.678-9.679c-0.849,1.596-1.962,3.149-3.225,4.442c0.794-4.112,1.09-8.125,1.052-12.313
					c-0.046-5.025,1.949-10.082,2.228-15.1c3.377-1.893,6.916-3.673,10.293-5.566c0.633-0.355,1.404-0.715,2.048-0.382
					c0.612,0.316,0.792,1.146,0.611,1.811c-0.181,0.665-0.628,1.219-1.011,1.792c-1.547,2.311-2.132,5.118-2.607,7.859
					C305.163,349.737,304.93,364.721,300.502,379.191z"/>
			</g>
			<g>
				<path style="fill:#4D080C;" d="M329.032,261.661c1.434,1.472,3.085,2.707,4.88,3.631c1.796,0.927,3.748,1.495,5.714,1.722
					l-0.456,0.933c-1.563-1.426-2.219-3.624-2.033-5.667l0.044-0.488l0.499-0.128c2.453-0.628,5.123-0.535,7.537,0.362
					c2.414,0.887,4.549,2.547,6.017,4.683l-1.731,0.359c0.388-2.18,0.284-4.45-0.209-6.634c-0.501-2.183-1.35-4.298-2.511-6.224
					l-1.493-2.477l2.681,1.049c2.943,1.152,6.298,1.02,9.396,0.059l0,1.696c-2.876-0.972-5.372-2.803-7.284-5.067
					c-1.921-2.259-3.249-5.021-3.732-7.928l-0.253-1.522l1.058,1.073c1.166,1.184,2.615,2.108,4.2,2.715
					c1.588,0.601,3.3,0.92,5.033,0.954c-1.725,0.178-3.503,0.043-5.2-0.457c-1.697-0.489-3.318-1.328-4.692-2.502l0.805-0.449
					c0.624,2.688,2.042,5.139,3.881,7.145c1.853,1.998,4.19,3.539,6.737,4.341l2.596,0.817l-2.596,0.879
					c-1.685,0.57-3.463,0.936-5.278,0.981c-1.812,0.038-3.654-0.253-5.371-0.904l1.188-1.427c1.292,2.096,2.251,4.402,2.766,6.822
					c0.52,2.413,0.624,4.944,0.158,7.405l-0.445,2.343l-1.287-1.983c-1.2-1.85-2.982-3.32-5.048-4.145
					c-2.061-0.832-4.384-1.053-6.597-0.583l0.544-0.616c-0.222,1.682,0.186,3.512,1.38,4.732l1.181,1.207l-1.637-0.274
					c-2.101-0.351-4.084-1.181-5.858-2.278C331.839,264.716,330.273,263.303,329.032,261.661z"/>
			</g>
			<g>
				<path style="fill:#4D080C;" d="M193.425,261.661c-1.227,1.654-2.793,3.071-4.564,4.188c-1.767,1.124-3.763,1.937-5.868,2.298
					l-1.772,0.305l1.271-1.329c1.162-1.214,1.588-3.016,1.361-4.688l0.587,0.664c-2.203-0.446-4.512-0.255-6.567,0.573
					c-2.051,0.833-3.828,2.282-5.047,4.113l-1.327,1.992l-0.444-2.359c-0.464-2.463-0.375-5.001,0.179-7.409
					c0.549-2.409,1.491-4.718,2.8-6.801l1.14,1.37c-1.719,0.632-3.555,0.902-5.355,0.846c-1.805-0.046-3.568-0.444-5.234-1.025
					l-2.191-0.764l2.191-0.654c1.293-0.386,2.536-0.967,3.7-1.69c1.166-0.724,2.227-1.619,3.199-2.608
					c1.947-1.984,3.391-4.484,4.149-7.235c-0.349,2.845-1.651,5.557-3.464,7.839c-0.912,1.145-1.998,2.154-3.189,3.028
					c-1.192,0.875-2.518,1.585-3.933,2.082l0-1.418c3.134,0.928,6.516,1.038,9.456-0.16l2.565-1.046l-1.426,2.416
					c-1.144,1.939-2.01,4.051-2.477,6.244c-0.459,2.189-0.578,4.452-0.187,6.63l-1.771-0.367c1.448-2.154,3.588-3.836,6.018-4.715
					c2.42-0.901,5.103-1.024,7.567-0.372l0.544,0.144l0.043,0.521c0.086,1.038-0.025,2.092-0.357,3.087
					c-0.331,0.993-0.912,1.917-1.695,2.625l-0.5-1.024c1.961-0.216,3.901-0.801,5.703-1.701
					C190.327,264.352,191.976,263.121,193.425,261.661z"/>
			</g>
			<g>
				<path style="fill:#4D080C;" d="M309.906,235.205c-3.543,0.899-6.699,2.902-8.759,5.56c-1.39,1.793-2.279,3.845-3.619,5.667
					c-1.339,1.822-3.312,3.48-5.778,3.78c-1.842,0.224-3.727-0.357-5.228-1.309c-1.501-0.952-2.663-2.251-3.687-3.598
					c2.014,1.493,5.247,0.978,7.632-0.021c2.385-0.999,4.252-2.71,6.165-4.299c1.882-1.564,3.882-3.055,6.188-4.107
					C305.127,235.825,307.327,234.883,309.906,235.205z"/>
			</g>
			<g>
				<path style="fill:#4D080C;" d="M212.763,235.205c3.543,0.899,6.699,2.902,8.759,5.56c1.39,1.793,2.279,3.845,3.619,5.667
					c1.339,1.822,3.312,3.48,5.778,3.78c1.842,0.224,3.727-0.357,5.228-1.309c1.501-0.952,2.663-2.251,3.687-3.598
					c-2.014,1.493-5.247,0.978-7.632-0.021c-2.385-0.999-4.252-2.71-6.165-4.299c-1.882-1.564-3.882-3.055-6.188-4.107
					C217.542,235.825,215.342,234.883,212.763,235.205z"/>
			</g>
			<g>
				<path style="fill:#4D080C;" d="M229.799,288.079c5.348,2.178,10.725,2.297,16.272,2.23c2.778-0.041,5.617-0.12,8.493,0.06
					c2.864,0.196,5.802,0.628,8.471,1.795c-2.894,0.075-5.648,0.291-8.439,0.564c-2.785,0.257-5.599,0.541-8.483,0.58
					c-2.886,0.038-5.838-0.194-8.698-0.965C234.579,291.566,231.788,290.218,229.799,288.079z"/>
			</g>
			<g>
				<path style="fill:#4D080C;" d="M293.38,288.079c-1.989,2.139-4.78,3.486-7.616,4.264c-2.859,0.772-5.812,1.003-8.698,0.965
					c-2.884-0.039-5.697-0.323-8.483-0.58c-2.792-0.273-5.545-0.489-8.439-0.564c2.669-1.166,5.607-1.598,8.471-1.795
					c2.876-0.181,5.716-0.101,8.493-0.06C282.656,290.376,288.033,290.257,293.38,288.079z"/>
			</g>
			<g>
				<path style="fill:#4D080C;" d="M217.231,317.723c1.72,0.762,3.364,1.529,5.027,2.227c1.662,0.698,3.336,1.321,5.028,1.889
					c1.694,0.561,3.406,1.072,5.153,1.512c1.748,0.442,3.522,0.819,5.355,1.247c-1.841,0.405-3.739,0.459-5.613,0.292
					c-1.876-0.168-3.739-0.551-5.529-1.155c-1.792-0.597-3.511-1.41-5.11-2.405C219.944,320.335,218.46,319.152,217.231,317.723z"/>
			</g>
			<g>
				<path style="fill:#4D080C;" d="M306.782,317.723c-1.229,1.429-2.713,2.612-4.31,3.607c-1.599,0.995-3.319,1.808-5.111,2.405
					c-1.79,0.604-3.653,0.987-5.529,1.155c-1.875,0.167-3.772,0.113-5.613-0.292c1.833-0.428,3.606-0.805,5.355-1.247
					c1.747-0.441,3.459-0.952,5.153-1.512c1.692-0.568,3.366-1.191,5.028-1.889C303.418,319.252,305.061,318.485,306.782,317.723z"
					/>
			</g>
			<g>
				<path style="fill:#4D080C;" d="M261.072,442.318c0.313-2.475,1.403-4.669,3.238-6.358c1.835-1.69,4.01-2.955,6.108-4.304
					s4.145-2.652,5.642-4.647c0.563,3.255-0.318,6.53-2.038,9.35c4.264-1.868,7.896-4.372,10.987-7.853
					c-0.101,4.573-2.486,8.812-5.421,12.321c-2.934,3.51-6.454,6.489-9.447,9.949c-4.354,5.035-7.542,11.072-9.244,17.507h-0.06
					c-1.702-6.435-4.89-12.472-9.244-17.507c-2.992-3.46-6.512-6.44-9.447-9.949c-2.934-3.509-5.32-7.748-5.421-12.321
					c3.09,3.482,6.722,5.986,10.987,7.853c-1.72-2.821-2.602-6.095-2.038-9.35c1.497,1.995,3.544,3.298,5.642,4.647
					s4.273,2.615,6.108,4.304c1.835,1.69,3.281,3.936,3.594,6.41"/>
			</g>
			<g>
				<path style="fill:#4D080C;" d="M103.401,330.023c-0.94-10.413-1.475-20.898-0.676-31.323
					c0.799-10.425,3.383-20.493,7.649-30.039c-2.599,9.265-3.435,19.021-2.448,28.592c1.06-2.375,2.549-3.874,4.768-5.23
					c-3.654,6.625-5.138,14.753-3.764,22.193c5.579-6.636,7.216-6.857,10.092-7.432c-3.893,4.07-5.895,12.87-6.592,18.14
					c0.021-0.812-1.346-2.517-1.325-3.329c0.006-0.248,0.005-0.52-0.155-0.71c-0.29-0.344-0.848-0.176-1.236,0.052
					c-1.438,0.846-2.572,2.137-3.455,3.553c-0.882,1.416-1.531,2.962-2.176,4.5"/>
			</g>
			<g>
				<g>
					<path style="fill:#4D080C;" d="M311.24,269.115c-1.689-3.04-4.297-4.883-6.854-7.146c-1.288-1.134-2.529-2.411-3.501-3.922
						c-0.967-1.488-1.634-3.315-1.421-5.073c1.266,3.247,3.753,5.262,6.247,7.497c1.266,1.119,2.537,2.326,3.598,3.754
						C310.363,265.635,311.2,267.348,311.24,269.115z"/>
				</g>
				<g>
					<path style="fill:#4D080C;" d="M329.713,235.117c3.306-0.277,6.065-1.579,8.474-3.421c1.202-0.93,2.33-1.986,3.421-3.128
						c1.092-1.141,2.149-2.358,3.336-3.536c-0.472,1.604-1.191,3.107-2.114,4.506c-0.922,1.396-2.055,2.697-3.424,3.742
						c-1.37,1.055-2.969,1.827-4.66,2.199C333.065,235.855,331.251,235.803,329.713,235.117z"/>
				</g>
				<g>
					<path style="fill:#4D080C;" d="M327.151,252.262c-0.155-1.747,0.471-3.554,1.467-5.042c0.998-1.503,2.344-2.754,3.855-3.706
						c1.502-0.953,3.135-1.616,4.774-2.125c1.645-0.509,3.302-0.863,5.024-1.094c-1.422,1.007-2.951,1.778-4.436,2.54
						c-1.489,0.761-2.937,1.519-4.294,2.37C330.855,246.917,328.492,249.076,327.151,252.262z"/>
				</g>
			</g>
			<g>
				<g>
					<path style="fill:#4D080C;" d="M211.377,269.115c0.04-1.766,0.877-3.48,1.931-4.889c1.061-1.428,2.332-2.636,3.598-3.754
						c2.495-2.235,4.982-4.25,6.247-7.497c0.213,1.758-0.454,3.585-1.421,5.073c-0.972,1.511-2.213,2.788-3.501,3.922
						C215.674,264.232,213.066,266.075,211.377,269.115z"/>
				</g>
				<g>
					<path style="fill:#4D080C;" d="M192.904,235.117c-1.538,0.685-3.352,0.738-5.033,0.363c-1.691-0.372-3.29-1.144-4.66-2.199
						c-1.37-1.046-2.503-2.347-3.424-3.742c-0.923-1.399-1.641-2.902-2.114-4.506c1.187,1.178,2.244,2.395,3.336,3.536
						c1.091,1.141,2.218,2.197,3.42,3.128C186.839,233.538,189.598,234.84,192.904,235.117z"/>
				</g>
				<g>
					<path style="fill:#4D080C;" d="M195.466,252.262c-1.341-3.186-3.704-5.345-6.389-7.057c-1.358-0.851-2.806-1.609-4.294-2.37
						c-1.486-0.762-3.015-1.533-4.437-2.54c1.722,0.23,3.379,0.584,5.024,1.094c1.639,0.509,3.272,1.172,4.774,2.125
						c1.511,0.952,2.856,2.203,3.855,3.706C194.995,248.709,195.621,250.515,195.466,252.262z"/>
				</g>
			</g>
			<g>
				<path style="fill:#4D080C;" d="M116.531,362.547c-0.921-9.765,2.073-19.844,8.175-27.523c-2.876,0.861-5.731,2.769-7.774,4.968
					c-0.073-7.313,2.577-14.292,7.433-19.761c-6.4,3.185-11.455,9.223-13.536,16.062
					C108.227,344.849,114.064,353.952,116.531,362.547z"/>
			</g>
			<g>
				<path style="fill:#4D080C;" d="M130.681,366.052c-1.599-3.793-1.89-8.123-0.814-12.096c1.076-3.973,3.512-7.564,6.806-10.033
					c-1.549,4.362-2.213,9.332-1.808,13.943c3.119-5.396,8.692-9.051,14.778-10.398c-7.418,8.091-11.978,19.204-12.171,30.179
					C134.835,373.983,132.434,370.213,130.681,366.052z"/>
			</g>
			<g>
				<g>
					<path style="fill:#4D080C;" d="M418.628,330.023c0.94-10.413,1.474-20.898,0.676-31.323
						c-0.799-10.425-3.383-20.493-7.649-30.039c2.599,9.265,3.435,19.021,2.448,28.592c-1.06-2.375-2.549-3.874-4.768-5.23
						c3.654,6.625,5.138,14.753,3.764,22.193c-5.579-6.636-7.216-6.857-10.092-7.432c3.894,4.07,5.895,12.87,6.592,18.14
						c-0.021-0.812,1.346-2.517,1.325-3.329c-0.006-0.248-0.005-0.52,0.155-0.71c0.29-0.344,0.848-0.176,1.236,0.052
						c1.438,0.846,2.573,2.137,3.455,3.553c0.882,1.416,1.531,2.962,2.176,4.5"/>
				</g>
				<g>
					<path style="fill:#4D080C;" d="M405.498,362.547c0.921-9.765-2.073-19.844-8.175-27.523c2.876,0.861,5.731,2.769,7.774,4.968
						c0.073-7.313-2.577-14.292-7.433-19.761c6.4,3.185,11.455,9.223,13.536,16.062
						C413.803,344.849,407.965,353.952,405.498,362.547z"/>
				</g>
				<g>
					<path style="fill:#4D080C;" d="M391.348,366.052c1.599-3.793,1.89-8.123,0.814-12.096c-1.076-3.973-3.512-7.564-6.806-10.033
						c1.549,4.362,2.213,9.332,1.808,13.943c-3.119-5.396-8.692-9.051-14.778-10.398c7.418,8.091,11.978,19.204,12.171,30.179
						C387.194,373.983,389.595,370.213,391.348,366.052z"/>
				</g>
			</g>
		</g>
		<g>
			<g>
				<path style="fill:#FFFFFF;" d="M192.886,46.97c-8.744,3.361-18.59,0.883-27.588-1.722c-8.997-2.604-18.712-5.307-27.606-2.34
					c-6.608,2.205-11.843,7.373-15.145,13.312c-3.301,5.94-4.849,12.63-5.834,19.293c-3.056,20.669-1.005,41.8,3.771,62.139
					c4.775,20.34,12.232,39.99,20.075,59.417l59.432-11.663c0,0,60.865-21.07,60.911-21.446s39.508-19.622,39.508-19.622
					c-6.067-20.014-12.581-39.975-21.653-58.897c-9.072-18.922-20.8-36.86-36.279-51.415c-4.99-4.692-10.443-9.073-16.809-11.824
					c-6.366-2.75-13.775-3.747-20.399-1.587c-8.916,2.908-14.897,10.789-20.374,18.168c-2.358,3.177-4.856,6.429-7.658,9.303"/>
			</g>
			<g>
				<path style="fill:#FFFFFF;" d="M285.811,100.862c21.292-6.536,41.17-4.882,53.652,3.574
					c12.481,8.455,18.879,22.646,16.63,36.887c-1.493,9.454-6.551,18.695-13.405,26.818c-6.855,8.122-15.464,15.194-24.594,21.604
					c-23.969,16.829-52.447,27.399-82.054,36.851c-27.886,9.35-54.919,16.822-83.087,17.626
					c-11.278,0.322-22.561-0.188-33.119-2.566c-10.558-2.378-20.4-6.704-27.556-13.305c-10.778-9.943-14.681-24.957-10.144-39.026
					c4.537-14.069,24.506-30.821,42.403-36.52"/>
				<path style="fill:#4D080C;" d="M147.166,245.805c-10.571,0-19.664-0.886-27.662-2.687c-11.623-2.618-21.39-7.344-28.244-13.666
					c-11.24-10.369-15.284-25.922-10.554-40.589c4.612-14.302,24.476-31.47,43.376-37.489c0.789-0.252,1.632,0.184,1.884,0.974
					c0.252,0.789-0.184,1.633-0.974,1.884c-17.79,5.666-37.15,22.279-41.431,35.552c-4.367,13.541-0.638,27.896,9.733,37.463
					c6.468,5.966,15.759,10.442,26.869,12.945c9.183,2.068,19.894,2.897,32.747,2.53c29.12-0.831,56.934-8.925,82.652-17.549
					c28.07-8.96,57.374-19.598,81.669-36.656c10.4-7.302,18.352-14.284,24.31-21.344c7.204-8.536,11.724-17.556,13.07-26.084
					c2.163-13.696-3.964-27.265-15.989-35.411c-12.377-8.385-31.957-9.647-52.37-3.381c-0.787,0.241-1.632-0.201-1.874-0.994
					c-0.243-0.792,0.201-1.631,0.993-1.875c21.276-6.53,41.813-5.123,54.933,3.766c13,8.806,19.617,23.505,17.27,38.362
					c-1.433,9.07-6.183,18.597-13.74,27.551c-6.127,7.26-14.265,14.412-24.878,21.865c-24.626,17.29-54.186,28.026-82.461,37.052
					c-25.917,8.69-53.988,16.854-83.499,17.696C151.003,245.777,149.061,245.805,147.166,245.805z"/>
			</g>
			<g>
				<path style="fill:#4D080C;" d="M139.702,197.416c-7.165-17.114-13.899-34.495-18.795-52.498
					c-4.893-17.968-7.849-36.657-7.126-55.433c0.183-4.686,0.564-9.372,1.245-14.021c0.684-4.645,1.625-9.325,3.262-13.846
					c1.617-4.509,4.022-8.859,7.341-12.449c3.284-3.586,7.48-6.503,12.25-7.876c4.758-1.389,9.733-1.268,14.405-0.498
					c4.691,0.803,9.19,2.153,13.6,3.584c4.401,1.405,8.82,2.717,13.357,3.373c4.514,0.713,9.209,0.657,13.644-0.783
					c-4.26,1.93-9.111,2.301-13.777,1.966c-4.691-0.394-9.272-1.486-13.776-2.641c-4.494-1.139-8.938-2.357-13.43-2.918
					c-4.467-0.594-9.006-0.554-13.154,0.781c-4.155,1.258-7.832,3.88-10.748,7.155c-2.95,3.276-5.04,7.244-6.572,11.44
					c-1.52,4.21-2.422,8.674-3.081,13.196c-0.666,4.528-1.101,9.093-1.309,13.673c-0.849,18.345,1.888,36.759,6.491,54.6
					c4.627,17.878,11.174,35.231,17.885,52.503c0.185,0.476-0.051,1.011-0.526,1.196
					C140.421,198.102,139.895,197.876,139.702,197.416z"/>
			</g>
			<g>
				<path style="fill:#4D080C;" d="M300.177,144.247c-5.168-16.394-11.021-32.568-17.979-48.245
					c-6.966-15.659-15.11-30.823-25.657-44.269c-5.227-6.736-11.063-12.997-17.354-18.703c-3.159-2.819-6.493-5.417-10.111-7.487
					c-3.606-2.082-7.505-3.602-11.567-4.277c-4.044-0.674-8.235-0.56-12.08,0.73c-3.871,1.251-7.324,3.658-10.346,6.531
					c-3.028,2.888-5.708,6.201-8.315,9.601c-2.607,3.406-5.189,6.905-8.226,10.079c-0.354,0.37-0.941,0.383-1.311,0.029
					c-0.361-0.346-0.382-0.914-0.053-1.285l0.006-0.007c5.617-6.312,9.814-14.005,16.161-20.223
					c3.147-3.084,6.884-5.806,11.215-7.282c4.316-1.505,8.991-1.735,13.417-0.993c4.441,0.717,8.696,2.365,12.544,4.566
					c3.868,2.192,7.37,4.906,10.64,7.798c3.272,2.893,6.341,5.97,9.286,9.172c2.943,3.199,5.754,6.52,8.396,9.967
					c10.661,13.736,18.912,29.166,25.681,45.035c6.875,15.859,12.396,32.246,17.228,48.787c0.127,0.436-0.123,0.892-0.559,1.02
					C300.762,144.915,300.312,144.672,300.177,144.247z"/>
			</g>
			<g>
				<g>
					<path style="fill:#4D080C;" d="M300.41,144.338c-22.549,18.609-47.646,33.442-75.097,42.402
						c-27.45,8.96-55.782,11.519-84.471,10.34l-12.911-34.401c57.036-1.929,113.433-20.092,160.875-51.811L300.41,144.338z"/>
				</g>
				<g>
					<path style="fill:#4D080C;" d="M153.916,198.862c-4.172,0-8.411-0.089-12.721-0.266c-0.828-0.034-1.471-0.732-1.437-1.56
						c0.034-0.827,0.73-1.477,1.56-1.437c31.093,1.276,58.414-2.086,83.529-10.284c25.857-8.44,50.958-22.616,74.606-42.133
						c0.642-0.529,1.584-0.436,2.112,0.202c0.527,0.639,0.436,1.584-0.202,2.111c-23.939,19.758-49.371,34.114-75.586,42.671
						C203.807,195.338,180.191,198.862,153.916,198.862z"/>
				</g>
				<g>
					<path style="fill:#4D080C;" d="M127.93,164.18c-0.805,0-1.471-0.639-1.498-1.449c-0.028-0.828,0.62-1.522,1.448-1.55
						c56.359-1.906,113.214-20.217,160.092-51.56c0.686-0.459,1.62-0.276,2.081,0.414c0.46,0.688,0.275,1.62-0.413,2.08
						c-47.337,31.649-104.748,50.139-161.658,52.063C127.965,164.179,127.947,164.18,127.93,164.18z"/>
				</g>
			</g>
			<g>
				<path style="fill:#4D080C;" d="M137.329,151.225c-2.403-4.848-4.264-9.954-5.737-15.169c-0.356-1.307-0.709-2.616-1.031-3.933
					l-0.885-3.971c-0.261-1.331-0.479-2.67-0.72-4.005l-0.598-4.026l-0.42-4.049l-0.297-4.058l-0.125-4.067
					c-0.013-1.356,0-2.712,0.024-4.066c0.134-5.417,0.673-10.826,1.804-16.117c0.113,5.407,0.233,10.752,0.537,16.08
					c0.103,1.331,0.196,2.66,0.262,3.99l0.333,3.98l0.381,3.972l0.477,3.961l0.518,3.956c0.203,1.314,0.43,2.625,0.613,3.943
					l0.664,3.938c0.266,1.304,0.502,2.616,0.734,3.931C134.886,140.751,136.096,145.96,137.329,151.225z"/>
			</g>
			<g>
				<path style="fill:#4D080C;" d="M202.023,32.412c3.105-2.966,7.66-4.331,12.045-4.262c4.428,0.029,8.787,1.354,12.625,3.557
					c3.805,2.214,7.031,5.215,9.8,8.466c2.777,3.262,5.127,6.79,7.218,10.483c-3.078-2.929-5.923-6.024-8.919-8.875
					c-2.991-2.852-6.15-5.452-9.613-7.486c-1.701-1.028-3.533-1.841-5.419-2.482c-1.881-0.671-3.844-1.08-5.827-1.335
					C209.965,30.028,205.834,30.507,202.023,32.412z"/>
			</g>
			<g>
				<path style="fill:#4D080C;" d="M92.147,190.464c-1.209,4.698-1.385,9.489-0.431,14.006c0.969,4.496,3.022,8.726,5.993,12.17
					c2.926,3.482,6.812,6.105,10.998,8.265c4.194,2.168,8.701,3.919,13.073,6.044c-4.758-0.94-9.478-2.063-14.052-3.917
					c-2.293-0.904-4.51-2.058-6.615-3.435c-2.079-1.41-4.023-3.084-5.688-5.014c-1.625-1.958-3.007-4.119-4.029-6.443
					c-0.991-2.332-1.716-4.787-1.982-7.298C88.815,199.844,89.77,194.711,92.147,190.464z"/>
			</g>
			<g>
				<path style="fill:#4D080C;" d="M271.949,203.849c5.98-3.006,11.847-6.11,17.548-9.478c1.409-0.871,2.818-1.736,4.243-2.574
					l4.177-2.671c1.362-0.936,2.748-1.833,4.121-2.751l4.039-2.867l3.988-2.938l3.902-3.052l3.846-3.128
					c1.243-1.089,2.504-2.159,3.773-3.222c4.986-4.358,9.773-8.954,14.505-13.688c-3.772,5.534-8.152,10.655-12.907,15.399
					c-1.201,1.173-2.411,2.34-3.639,3.488l-3.774,3.346l-3.917,3.18l-4.022,3.046l-4.155,2.863c-1.417,0.906-2.821,1.832-4.249,2.72
					l-4.36,2.535c-1.475,0.807-2.964,1.586-4.453,2.361C284.62,199.445,278.385,201.999,271.949,203.849z"/>
			</g>
			<g>
				<path style="fill:#4D080C;" d="M296.36,105.35c2.853-1.314,5.942-2.073,9.073-2.437c3.134-0.384,6.324-0.331,9.461,0.087
					c3.136,0.425,6.227,1.221,9.147,2.421c2.923,1.181,5.7,2.734,8.1,4.76c-2.996-0.927-5.897-1.812-8.824-2.534
					c-2.931-0.703-5.863-1.276-8.824-1.675c-2.96-0.405-5.94-0.629-8.952-0.73C302.526,105.161,299.494,105.246,296.36,105.35z"/>
			</g>
			<g>
				<path style="fill:#FFFFFF;" d="M159.354,188.965c4.949-0.703,9.865-1.273,14.767-1.899l7.338-0.979
					c1.219-0.189,2.442-0.334,3.663-0.503l3.656-0.55l3.657-0.542l3.65-0.59l7.304-1.205c4.871-0.832,9.739-1.72,14.679-2.488
					c-4.597,1.97-9.357,3.504-14.183,4.776c-2.409,0.659-4.851,1.174-7.29,1.712c-2.449,0.485-4.91,0.905-7.375,1.304
					c-2.475,0.333-4.951,0.656-7.435,0.901c-2.489,0.2-4.976,0.415-7.472,0.49C169.325,189.581,164.326,189.504,159.354,188.965z"/>
			</g>
			<g>
				<path style="fill:#FFFFFF;" d="M190.85,177.47c3.202-1.112,6.41-2.009,9.616-2.882c3.201-0.89,6.406-1.711,9.612-2.53
					c3.208-0.812,6.417-1.616,9.655-2.36c3.234-0.761,6.482-1.5,9.829-2.044c-2.924,1.719-6.002,3.09-9.143,4.283
					c-3.136,1.21-6.349,2.202-9.604,3.029c-3.256,0.82-6.554,1.479-9.887,1.909C197.599,177.321,194.24,177.585,190.85,177.47z"/>
			</g>
			<g>
				<path style="fill:#FFFFFF;" d="M252.966,142.917c2.692-1.735,5.412-3.288,8.118-4.847l8.078-4.676l8.063-4.7
					c2.695-1.578,5.393-3.168,8.237-4.643c-2.065,2.451-4.422,4.603-6.915,6.575c-2.484,1.988-5.131,3.764-7.879,5.362
					c-2.753,1.591-5.608,3.01-8.565,4.18C259.154,141.354,256.118,142.335,252.966,142.917z"/>
			</g>
			<g>
				<path style="fill:#4D080C;" d="M111.489,218.411c-2.313-0.434-4.47-1.562-6.343-3.045c-1.866-1.499-3.438-3.397-4.574-5.538
					c-1.138-2.14-1.827-4.508-2.02-6.893c-0.178-2.382,0.102-4.802,1.044-6.959c0.307,2.322,0.678,4.48,1.279,6.552
					c0.586,2.07,1.366,4.038,2.346,5.895c0.983,1.856,2.175,3.607,3.559,5.254C108.159,215.34,109.739,216.857,111.489,218.411z"/>
			</g>
			<g>
				<path style="fill:#4D080C;" d="M208.099,39.32c1.665-1.091,3.659-1.624,5.673-1.734c2.019-0.1,4.08,0.244,5.984,1.008
					c1.905,0.761,3.633,1.938,5.022,3.407c1.38,1.471,2.452,3.237,2.897,5.178c-1.511-1.282-2.929-2.412-4.423-3.38
					c-1.485-0.97-3.02-1.779-4.613-2.422c-1.595-0.641-3.263-1.118-5.008-1.444C211.883,39.598,210.076,39.435,208.099,39.32z"/>
			</g>
		</g>
	</g>
</g>
</svg>
